<svg class="logo" viewBox="0 0 870 1000" fill="none" xmlns="http://www.w3.org/2000/svg">
  <g id="lawless">
    <g id="name">
      <g id="waterproofing">
        <path id="path147" d="M3220.28 791.493C3218.62 791.635 3216.67 791.746 3214.45 791.856C3212.22 791.959 3210.25 792.006 3208.53 792.006C3206.8 792.006 3204.77 791.959 3202.45 791.856C3200.12 791.746 3198 791.635 3196.08 791.493C3195.94 792.038 3195.87 792.59 3195.87 793.134C3195.87 793.544 3195.97 793.954 3196.17 794.364C3196.37 794.774 3196.74 795.011 3197.26 795.082C3199.79 795.429 3201.59 795.949 3202.64 796.667C3203.71 797.393 3204.24 798.67 3204.24 800.524V816.203C3202.91 816.621 3201.27 816.96 3199.31 817.228C3197.35 817.504 3195.41 817.638 3193.49 817.638C3189.7 817.638 3186.19 816.857 3182.97 815.28C3179.75 813.703 3176.96 811.486 3174.6 808.616C3172.24 805.745 3170.38 802.33 3169.02 798.363C3167.66 794.396 3166.99 790.058 3166.99 785.342C3166.99 781.312 3167.51 777.565 3168.58 774.119C3169.64 770.664 3171.22 767.691 3173.31 765.199C3175.4 762.707 3178.04 760.735 3181.22 759.299C3184.41 757.864 3188.14 757.154 3192.38 757.154C3197.7 757.154 3201.79 758.14 3204.64 760.12C3207.49 762.099 3209.53 765.38 3210.72 769.97C3210.98 770.854 3211.65 771.295 3212.71 771.295C3212.97 771.295 3213.31 771.264 3213.71 771.193C3214.1 771.13 3214.37 771.019 3214.5 770.885C3213.91 768.424 3213.42 765.916 3213.06 763.353C3212.69 760.782 3212.44 758.314 3212.31 755.916C3210.18 755.372 3208.21 754.906 3206.38 754.528C3204.55 754.157 3202.75 753.834 3200.96 753.558C3199.16 753.282 3197.35 753.1 3195.52 752.99C3193.69 752.887 3191.78 752.84 3189.79 752.84C3184.22 752.84 3179.33 753.881 3175.15 755.963C3170.96 758.053 3167.49 760.735 3164.74 764.016C3161.99 767.297 3159.92 770.988 3158.56 775.089C3157.21 779.19 3156.53 783.291 3156.53 787.392C3156.53 792.314 3157.21 796.88 3158.56 801.084C3159.92 805.287 3162.01 808.923 3164.79 811.999C3167.58 815.075 3171.08 817.504 3175.3 819.279C3179.52 821.053 3184.48 821.944 3190.19 821.944C3194.37 821.944 3198.03 821.795 3201.16 821.487C3204.28 821.179 3207.33 820.746 3210.31 820.201C3211.84 819.925 3212.77 819.594 3213.1 819.176C3213.43 818.766 3213.61 818.261 3213.61 817.638V799.388C3213.61 798.024 3214.02 797.014 3214.85 796.36C3215.68 795.713 3217.16 795.255 3219.28 794.979C3219.62 794.916 3219.89 794.759 3220.13 794.522C3220.36 794.285 3220.48 793.82 3220.48 793.134C3220.48 792.724 3220.41 792.18 3220.28 791.493Z" fill="#231F20" />
        <path id="path143" d="M3121.25 753.917C3119.66 754.027 3118.13 754.074 3116.67 754.074C3115.15 754.074 3113.51 754.027 3111.8 753.917C3110.06 753.814 3108.36 753.704 3106.72 753.562C3106.58 754.24 3106.51 754.784 3106.51 755.202C3106.51 756.298 3106.88 756.874 3107.61 756.945C3110.13 757.284 3111.92 757.757 3112.98 758.373C3114.05 758.996 3114.58 760.052 3114.58 761.559V804.408L3078.81 755.305C3078.42 754.753 3077.9 754.413 3077.27 754.279C3076.65 754.137 3075.37 754.074 3073.44 754.074C3072.51 754.074 3071.44 754.059 3070.25 754.027C3069.05 753.988 3067.92 753.94 3066.86 753.869C3065.66 753.798 3064.41 753.704 3063.07 753.562C3063 753.83 3062.98 754.074 3062.98 754.279C3062.91 754.547 3062.87 754.855 3062.87 755.202C3062.87 756.227 3063.24 756.803 3063.97 756.945C3066.36 757.284 3067.94 757.742 3068.71 758.333C3069.46 758.909 3069.85 759.745 3069.85 760.841V813.54C3069.85 814.905 3069.43 815.859 3068.61 816.411C3067.77 816.955 3066.17 817.476 3063.77 817.949C3063.04 818.083 3062.68 818.627 3062.68 819.59C3062.68 820 3062.74 820.544 3062.87 821.23C3064.34 821.096 3065.96 820.97 3067.76 820.867C3069.55 820.773 3071.11 820.717 3072.44 820.717C3073.9 820.717 3075.47 820.773 3077.17 820.867C3078.87 820.97 3080.55 821.096 3082.2 821.23C3082.34 820.544 3082.41 820 3082.41 819.59C3082.41 818.627 3082.07 818.083 3081.41 817.949C3078.75 817.476 3076.96 816.955 3076.03 816.411C3075.1 815.859 3074.63 814.905 3074.63 813.54V765.25L3115.08 820.102C3115.61 820.851 3116.07 821.348 3116.47 821.585C3116.88 821.822 3117.3 821.948 3117.77 821.948C3117.97 821.948 3118.23 821.924 3118.56 821.893C3118.89 821.861 3119.13 821.806 3119.26 821.743V761.346C3119.26 759.989 3119.67 758.996 3120.5 758.373C3121.34 757.757 3122.89 757.284 3125.14 756.945C3125.81 756.874 3126.14 756.298 3126.14 755.202C3126.14 754.784 3126.07 754.24 3125.94 753.562C3124.41 753.704 3122.85 753.814 3121.25 753.917Z" fill="#231F20" />
        <path id="path139" d="M3024.92 758.429C3025.85 757.853 3027.58 757.348 3030.1 756.946C3030.77 756.804 3031.1 756.228 3031.1 755.203C3031.1 754.785 3031.03 754.241 3030.9 753.562C3028.85 753.697 3026.73 753.815 3024.57 753.917C3022.42 754.02 3020.51 754.067 3018.85 754.067C3017.11 754.067 3015.18 754.02 3013.02 753.917C3010.86 753.815 3008.78 753.697 3006.79 753.562C3006.65 754.241 3006.59 754.785 3006.59 755.203C3006.59 755.613 3006.65 755.984 3006.79 756.323C3006.92 756.67 3007.19 756.875 3007.59 756.946C3010.11 757.348 3011.84 757.853 3012.77 758.429C3013.7 759.004 3014.16 759.982 3014.16 761.347V813.534C3014.16 814.906 3013.7 815.861 3012.77 816.413C3011.84 816.957 3010.11 817.469 3007.59 817.951C3006.92 818.077 3006.59 818.629 3006.59 819.591C3006.59 820.001 3006.65 820.545 3006.79 821.231C3008.72 821.089 3010.75 820.971 3012.92 820.869C3015.08 820.766 3017.05 820.711 3018.85 820.711C3020.7 820.711 3022.66 820.766 3024.72 820.869C3026.78 820.971 3028.85 821.089 3030.9 821.231C3031.03 820.545 3031.1 820.001 3031.1 819.591C3031.1 818.629 3030.77 818.077 3030.1 817.951C3027.58 817.406 3025.85 816.87 3024.92 816.357C3024 815.845 3023.53 814.906 3023.53 813.534V761.347C3023.53 759.982 3024 759.004 3024.92 758.429" fill="#231F20" />
        <path id="path135" d="M2974.21 759.199C2974.02 757.63 2973.75 756.273 2973.42 755.146C2973.09 754.026 2972.52 753.45 2971.72 753.45C2970.87 753.45 2969.26 753.56 2966.94 753.765C2964.62 753.97 2962.16 754.073 2959.57 754.073H2939.85C2937.98 754.073 2936.03 754.026 2933.97 753.915C2931.9 753.813 2929.78 753.702 2927.59 753.56C2927.45 754.239 2927.4 754.783 2927.4 755.201C2927.4 755.753 2927.44 756.139 2927.54 756.384C2927.64 756.62 2927.93 756.802 2928.4 756.944C2931.05 757.417 2932.89 757.937 2933.92 758.482C2934.95 759.034 2935.46 759.988 2935.46 761.345V813.54C2935.46 814.904 2934.82 815.85 2933.57 816.355C2932.3 816.868 2930.59 817.404 2928.4 817.948C2927.73 818.019 2927.4 818.556 2927.4 819.589C2927.4 819.999 2927.45 820.543 2927.59 821.229C2929.52 821.095 2931.61 820.969 2933.87 820.866C2936.12 820.772 2938.15 820.717 2939.94 820.717C2941.87 820.717 2943.71 820.748 2945.48 820.811C2947.23 820.882 2948.78 820.953 2950.11 821.024C2951.7 821.095 2953.19 821.158 2954.59 821.229C2954.72 820.543 2954.79 819.959 2954.79 819.486C2954.79 818.39 2954.39 817.814 2953.6 817.743C2951.13 817.404 2949.06 816.97 2947.37 816.466C2945.67 815.945 2944.83 815.007 2944.83 813.634V789.855H2959.68C2960.99 789.855 2961.96 790.542 2962.56 791.898C2963.16 793.27 2963.59 794.848 2963.85 796.622C2963.92 797.167 2964.12 797.521 2964.46 797.695C2964.79 797.868 2965.22 797.955 2965.75 797.955C2966.21 797.955 2966.71 797.884 2967.24 797.75C2967.04 795.629 2966.91 793.752 2966.84 792.111C2966.77 790.471 2966.74 789.067 2966.74 787.907C2966.74 786.472 2966.79 784.776 2966.9 782.828C2967 780.88 2967.11 779.153 2967.24 777.655C2966.71 777.513 2966.18 777.442 2965.65 777.442C2964.65 777.442 2964.05 777.891 2963.85 778.774C2963.52 780.628 2963.07 782.213 2962.51 783.546C2961.95 784.879 2960.99 785.549 2959.68 785.549H2944.83V758.277H2959.57C2961.57 758.277 2963.22 758.466 2964.55 758.837C2965.88 759.215 2967.03 759.815 2967.99 760.635C2968.95 761.455 2969.82 762.512 2970.57 763.813C2971.34 765.115 2972.13 766.684 2972.92 768.529C2973.19 769.145 2973.72 769.452 2974.51 769.452C2974.84 769.452 2975.18 769.397 2975.51 769.295C2975.85 769.2 2976.11 769.003 2976.31 768.735C2975.65 767.433 2975.18 765.919 2974.91 764.168C2974.65 762.425 2974.41 760.769 2974.21 759.199Z" fill="#231F20" />
        <path id="path131" d="M2883.81 802.262C2882.78 805.267 2881.34 807.869 2879.48 810.054C2877.61 812.246 2875.39 813.942 2872.8 815.18C2870.22 816.411 2867.36 817.026 2864.23 817.026C2860.38 817.026 2856.96 816.143 2853.97 814.36C2850.99 812.586 2848.49 810.101 2846.46 806.931C2844.42 803.744 2842.88 799.99 2841.83 795.645C2840.76 791.307 2840.23 786.614 2840.23 781.551C2840.23 777.726 2840.79 774.342 2841.92 771.401C2843.05 768.459 2844.56 765.982 2846.46 763.971C2848.35 761.952 2850.54 760.406 2853.03 759.357C2855.52 758.293 2858.13 757.756 2860.85 757.756C2864.97 757.756 2868.57 758.655 2871.66 760.43C2874.75 762.205 2877.3 764.649 2879.33 767.757C2881.35 770.872 2882.86 774.524 2883.87 778.735C2884.86 782.939 2885.35 787.498 2885.35 792.419C2885.35 795.968 2884.84 799.249 2883.81 802.262ZM2887 763.253C2884.18 760.067 2880.61 757.543 2876.3 755.666C2871.97 753.789 2866.93 752.835 2861.15 752.835C2856.96 752.835 2852.98 753.766 2849.19 755.611C2845.41 757.449 2842.09 759.957 2839.24 763.096C2836.38 766.243 2834.12 769.894 2832.46 774.066C2830.8 778.231 2829.97 782.679 2829.97 787.395C2829.97 792.585 2830.75 797.301 2832.31 801.544C2833.86 805.779 2836.06 809.423 2838.88 812.459C2841.7 815.504 2845.08 817.846 2848.99 819.487C2852.92 821.127 2857.23 821.947 2861.94 821.947C2866.59 821.947 2870.96 821.159 2875.04 819.589C2879.13 818.02 2882.69 815.74 2885.71 812.767C2888.73 809.794 2891.1 806.174 2892.83 801.899C2894.55 797.632 2895.42 792.798 2895.42 787.395C2895.42 782.813 2894.73 778.436 2893.32 774.271C2891.94 770.099 2889.82 766.424 2887 763.253Z" fill="#231F20" />
        <path id="path127" d="M2786.48 802.262C2785.45 805.267 2784.01 807.869 2782.15 810.054C2780.29 812.246 2778.07 813.942 2775.47 815.18C2772.89 816.411 2770.04 817.026 2766.91 817.026C2763.05 817.026 2759.64 816.143 2756.64 814.36C2753.66 812.586 2751.15 810.101 2749.12 806.931C2747.1 803.744 2745.55 799.99 2744.49 795.645C2743.43 791.307 2742.9 786.614 2742.9 781.551C2742.9 777.726 2743.47 774.342 2744.59 771.401C2745.73 768.459 2747.23 765.982 2749.12 763.971C2751.02 761.952 2753.21 760.406 2755.7 759.357C2758.2 758.293 2760.79 757.756 2763.52 757.756C2767.64 757.756 2771.25 758.655 2774.33 760.43C2777.42 762.205 2779.97 764.649 2782 767.757C2784.03 770.872 2785.54 774.524 2786.53 778.735C2787.53 782.939 2788.03 787.498 2788.03 792.419C2788.03 795.968 2787.52 799.249 2786.48 802.262ZM2789.67 763.253C2786.85 760.067 2783.28 757.543 2778.96 755.666C2774.64 753.789 2769.6 752.835 2763.82 752.835C2759.64 752.835 2755.65 753.766 2751.87 755.611C2748.08 757.449 2744.76 759.957 2741.9 763.096C2739.05 766.243 2736.79 769.894 2735.13 774.066C2733.47 778.231 2732.64 782.679 2732.64 787.395C2732.64 792.585 2733.41 797.301 2734.98 801.544C2736.54 805.779 2738.73 809.423 2741.56 812.459C2744.38 815.504 2747.74 817.846 2751.67 819.487C2755.58 821.127 2759.9 821.947 2764.61 821.947C2769.27 821.947 2773.63 821.159 2777.71 819.589C2781.81 818.02 2785.35 815.74 2788.37 812.767C2791.4 809.794 2793.77 806.174 2795.5 801.899C2797.22 797.632 2798.09 792.798 2798.09 787.395C2798.09 782.813 2797.39 778.436 2796 774.271C2794.6 770.099 2792.5 766.424 2789.67 763.253Z" fill="#231F20" />
        <path id="path123" d="M2671.07 786.572H2665.8V758.275H2670.77C2673.49 758.275 2675.8 758.653 2677.69 759.402C2679.58 760.152 2681.11 761.177 2682.28 762.478C2683.44 763.772 2684.29 765.317 2684.82 767.092C2685.34 768.874 2685.61 770.822 2685.61 772.936C2685.61 777.992 2684.35 781.533 2681.83 783.544C2679.31 785.563 2675.71 786.572 2671.07 786.572ZM2708.33 818.262C2706.99 817.915 2705.57 817.402 2704.05 816.716C2702.51 816.03 2701.12 814.799 2699.86 813.025L2683.22 789.238C2685.41 788.418 2687.32 787.345 2688.95 786.012C2690.58 784.68 2691.91 783.22 2692.93 781.651C2693.97 780.082 2694.73 778.473 2695.22 776.832C2695.73 775.192 2695.97 773.614 2695.97 772.116C2695.97 766.579 2694.15 762.186 2690.49 758.945C2686.85 755.696 2681.44 754.071 2674.26 754.071H2660.81C2658.88 754.071 2656.86 754.024 2654.73 753.913C2652.61 753.818 2650.55 753.7 2648.55 753.558C2648.42 754.236 2648.35 754.789 2648.35 755.199C2648.35 756.295 2648.68 756.871 2649.35 756.942C2652.14 757.281 2654.02 757.786 2654.97 758.432C2655.94 759.079 2656.42 760.057 2656.42 761.35V813.537C2656.42 814.91 2655.91 815.88 2654.88 816.463C2653.85 817.039 2652.07 817.536 2649.55 817.954C2648.82 818.08 2648.45 818.624 2648.45 819.594C2648.45 819.997 2648.52 820.549 2648.65 821.235C2650.65 821.093 2652.77 820.967 2655.03 820.872C2657.29 820.77 2659.28 820.714 2661.01 820.714C2663.47 820.714 2665.97 820.77 2668.53 820.872C2671.08 820.967 2673.26 821.093 2675.06 821.235C2675.18 820.549 2675.25 819.957 2675.25 819.484C2675.25 818.459 2674.85 817.883 2674.06 817.741C2671.27 817.402 2669.19 816.96 2667.83 816.408C2666.47 815.864 2665.8 814.839 2665.8 813.34V790.776H2673.16L2689.11 814.46C2690.36 816.377 2691.7 817.954 2693.14 819.176C2694.56 820.407 2695.97 821.022 2697.38 821.022C2699.23 821.022 2701.25 821.077 2703.45 821.18C2705.64 821.274 2707.5 821.4 2709.02 821.535C2709.16 820.856 2709.22 820.241 2709.22 819.689C2709.22 818.869 2708.92 818.388 2708.33 818.262Z" fill="#231F20" />
        <path id="path119" d="M2603.53 784.423C2601.01 786.545 2597.41 787.594 2592.77 787.594H2587.49V758.278H2592.77C2595.56 758.278 2597.89 758.681 2599.74 759.509C2601.6 760.321 2603.09 761.441 2604.23 762.837C2605.35 764.233 2606.15 765.858 2606.62 767.711C2607.09 769.549 2607.31 771.536 2607.31 773.658C2607.31 778.713 2606.05 782.302 2603.53 784.423ZM2596.16 754.067H2582.11C2580.25 754.067 2578.27 754.027 2576.19 753.917C2574.09 753.814 2572.11 753.696 2570.25 753.562C2570.12 754.106 2570.06 754.619 2570.06 755.092C2570.06 756.188 2570.39 756.803 2571.05 756.945C2573.7 757.285 2575.55 757.758 2576.58 758.373C2577.61 758.988 2578.13 759.982 2578.13 761.346V813.533C2578.13 814.906 2577.67 815.844 2576.78 816.357C2575.89 816.87 2574.1 817.406 2571.44 817.95C2570.79 818.084 2570.45 818.628 2570.45 819.59C2570.45 820.001 2570.52 820.545 2570.65 821.231C2572.58 821.089 2574.63 820.971 2576.83 820.868C2579.02 820.766 2580.98 820.718 2582.71 820.718C2585.56 820.718 2588.22 820.766 2590.68 820.868C2593.14 820.971 2595.33 821.089 2597.25 821.231C2597.38 820.545 2597.45 819.961 2597.45 819.48C2597.45 818.455 2597.05 817.879 2596.26 817.745C2593.34 817.335 2591.15 816.799 2589.68 816.152C2588.22 815.497 2587.49 814.393 2587.49 812.824V791.805H2596.16C2599.54 791.805 2602.58 791.222 2605.28 790.062C2607.96 788.895 2610.22 787.412 2612.04 785.598C2613.87 783.792 2615.26 781.749 2616.23 779.502C2617.19 777.246 2617.68 775.022 2617.68 772.829C2617.68 767.293 2615.88 762.79 2612.3 759.296C2608.71 755.818 2603.33 754.067 2596.16 754.067" fill="#231F20" />
        <path id="path115" d="M2505.4 786.572H2500.12V758.275H2505.11C2507.83 758.275 2510.13 758.653 2512.03 759.402C2513.92 760.152 2515.45 761.177 2516.61 762.478C2517.77 763.772 2518.62 765.317 2519.15 767.092C2519.68 768.874 2519.94 770.822 2519.94 772.936C2519.94 777.992 2518.68 781.533 2516.16 783.544C2513.63 785.563 2510.05 786.572 2505.4 786.572ZM2542.66 818.262C2541.33 817.915 2539.9 817.402 2538.38 816.716C2536.85 816.03 2535.45 814.799 2534.2 813.025L2517.56 789.238C2519.75 788.418 2521.66 787.345 2523.28 786.012C2524.92 784.68 2526.24 783.22 2527.28 781.651C2528.29 780.082 2529.06 778.473 2529.56 776.832C2530.06 775.192 2530.31 773.614 2530.31 772.116C2530.31 766.579 2528.49 762.186 2524.83 758.945C2521.18 755.696 2515.77 754.071 2508.59 754.071H2495.14C2493.21 754.071 2491.19 754.024 2489.07 753.913C2486.94 753.818 2484.87 753.7 2482.89 753.558C2482.75 754.236 2482.69 754.789 2482.69 755.199C2482.69 756.295 2483.02 756.871 2483.69 756.942C2486.47 757.281 2488.35 757.786 2489.31 758.432C2490.27 759.079 2490.76 760.057 2490.76 761.35V813.537C2490.76 814.91 2490.24 815.88 2489.22 816.463C2488.19 817.039 2486.41 817.536 2483.88 817.954C2483.16 818.08 2482.79 818.624 2482.79 819.594C2482.79 819.997 2482.86 820.549 2482.99 821.235C2484.98 821.093 2487.1 820.967 2489.37 820.872C2491.62 820.77 2493.61 820.714 2495.34 820.714C2497.79 820.714 2500.31 820.77 2502.86 820.872C2505.42 820.967 2507.6 821.093 2509.39 821.235C2509.52 820.549 2509.59 819.957 2509.59 819.484C2509.59 818.459 2509.19 817.883 2508.39 817.741C2505.6 817.402 2503.53 816.96 2502.16 816.408C2500.8 815.864 2500.12 814.839 2500.12 813.34V790.776H2507.49L2523.44 814.46C2524.7 816.377 2526.03 817.954 2527.47 819.176C2528.89 820.407 2530.31 821.022 2531.7 821.022C2533.56 821.022 2535.58 821.077 2537.78 821.18C2539.97 821.274 2541.83 821.4 2543.36 821.535C2543.49 820.856 2543.56 820.241 2543.56 819.689C2543.56 818.869 2543.25 818.388 2542.66 818.262" fill="#231F20" />
        <path id="path111" d="M2449.91 804.518C2449.11 804.518 2448.62 804.754 2448.42 805.236C2447.62 806.876 2446.79 808.375 2445.93 809.747C2445.06 811.111 2444.09 812.286 2442.99 813.28C2441.9 814.274 2440.63 815.063 2439.21 815.638C2437.77 816.222 2436.09 816.514 2434.17 816.514H2428.69C2424.58 816.514 2421.63 816.269 2419.83 815.796C2418.04 815.315 2417.14 814.361 2417.14 812.917V788.728H2432.68C2434.01 788.728 2434.95 789.391 2435.52 790.724C2436.08 792.057 2436.53 793.681 2436.86 795.598C2437.06 796.481 2437.69 796.931 2438.75 796.931C2439.21 796.931 2439.72 796.86 2440.25 796.726C2440.05 794.604 2439.92 792.711 2439.86 791.031C2439.79 789.359 2439.76 787.94 2439.76 786.78C2439.76 785.337 2439.8 783.665 2439.9 781.749C2440 779.84 2440.12 778.129 2440.25 776.63C2440.05 776.559 2439.79 776.488 2439.46 776.417C2439.12 776.354 2438.86 776.323 2438.65 776.323C2437.66 776.323 2437.06 776.764 2436.86 777.655C2436.53 779.572 2436.08 781.189 2435.52 782.522C2434.95 783.854 2434.01 784.525 2432.68 784.525H2417.14V758.277H2431.88C2433.87 758.277 2435.55 758.483 2436.91 758.893C2438.27 759.303 2439.44 759.918 2440.4 760.73C2441.37 761.558 2442.21 762.599 2442.95 763.861C2443.67 765.131 2444.43 766.645 2445.24 768.428C2445.5 769.043 2446.06 769.351 2446.92 769.351C2447.59 769.351 2448.18 769.146 2448.72 768.735C2447.99 767.505 2447.49 765.999 2447.22 764.224C2446.95 762.442 2446.72 760.77 2446.53 759.2C2446.33 757.631 2446.08 756.274 2445.78 755.146C2445.48 754.026 2444.9 753.451 2444.03 753.451C2443.31 753.451 2441.84 753.561 2439.65 753.758C2437.46 753.971 2434.87 754.074 2431.88 754.074H2412.25C2410.73 754.074 2409 754.042 2407.07 753.971C2405.15 753.9 2402.76 753.758 2399.91 753.561C2399.84 753.829 2399.79 754.082 2399.76 754.326C2399.72 754.571 2399.7 754.855 2399.7 755.202C2399.7 756.227 2400.03 756.803 2400.7 756.945C2403.49 757.489 2405.37 758.017 2406.33 758.53C2407.29 759.042 2407.77 759.989 2407.77 761.345V813.54C2407.77 814.905 2407.23 815.859 2406.13 816.411C2405.04 816.955 2403.22 817.476 2400.7 817.949C2400.03 818.083 2399.7 818.627 2399.7 819.59C2399.7 820 2399.77 820.544 2399.91 821.23C2401.89 821.096 2403.99 820.97 2406.18 820.867C2408.37 820.773 2410.43 820.717 2412.36 820.717H2434.17C2435.04 820.717 2436.06 820.749 2437.27 820.812C2438.46 820.883 2439.64 820.938 2440.8 820.97C2441.96 821.009 2443.05 821.057 2444.03 821.12C2445.03 821.191 2445.8 821.23 2446.33 821.23C2446.99 821.23 2447.54 820.646 2447.97 819.479C2448.4 818.32 2448.82 816.916 2449.21 815.275C2449.61 813.635 2450.03 811.908 2450.46 810.102C2450.89 808.296 2451.41 806.734 2452 805.441C2451.67 805.236 2451.33 805.023 2450.96 804.825C2450.59 804.62 2450.25 804.518 2449.91 804.518Z" fill="#231F20" />
        <path id="path107" d="M2369.62 757.559C2369.35 756.258 2369.08 755.248 2368.78 754.53C2368.48 753.813 2367.99 753.45 2367.33 753.45C2366.8 753.45 2366.12 753.489 2365.29 753.56C2364.46 753.631 2363.54 753.702 2362.55 753.765C2361.55 753.828 2360.55 753.899 2359.56 753.97C2358.56 754.041 2357.66 754.073 2356.87 754.073H2323.6C2322.73 754.073 2321.8 754.041 2320.81 753.97C2319.81 753.899 2318.83 753.828 2317.86 753.765C2316.91 753.702 2315.99 753.631 2315.13 753.56C2314.26 753.489 2313.6 753.45 2313.14 753.45C2312.47 753.45 2311.99 753.797 2311.69 754.475C2311.39 755.161 2311.1 756.139 2310.84 757.401C2310.58 758.671 2310.28 760.256 2309.95 762.173C2309.61 764.081 2309.11 766.266 2308.45 768.735C2308.98 769.145 2309.61 769.35 2310.35 769.35C2310.61 769.35 2310.89 769.279 2311.19 769.145C2311.49 769.003 2311.7 768.766 2311.84 768.427C2312.63 766.716 2313.4 765.217 2314.13 763.916C2314.86 762.622 2315.73 761.558 2316.72 760.729C2317.72 759.917 2318.9 759.302 2320.26 758.892C2321.62 758.482 2323.3 758.277 2325.29 758.277H2335.55V813.027C2335.55 814.596 2334.88 815.693 2333.56 816.308C2332.22 816.915 2330.07 817.436 2327.08 817.846C2326.42 817.98 2326.09 818.524 2326.09 819.486C2326.09 819.959 2326.15 820.543 2326.29 821.229C2328.41 821.095 2330.68 820.969 2333.11 820.866C2335.54 820.772 2337.9 820.717 2340.23 820.717C2342.62 820.717 2345 820.772 2347.36 820.866C2349.71 820.969 2351.95 821.095 2354.08 821.229C2354.21 820.543 2354.28 819.959 2354.28 819.486C2354.28 818.39 2353.91 817.846 2353.18 817.846C2350.19 817.507 2348.06 817.01 2346.8 816.355C2345.54 815.708 2344.91 814.596 2344.91 813.027V758.277H2355.18C2357.17 758.277 2358.85 758.482 2360.2 758.892C2361.57 759.302 2362.73 759.917 2363.7 760.729C2364.66 761.558 2365.51 762.622 2366.23 763.916C2366.96 765.217 2367.69 766.716 2368.43 768.427C2368.56 768.766 2368.79 769.003 2369.12 769.145C2369.46 769.279 2369.76 769.35 2370.02 769.35C2370.42 769.35 2370.76 769.279 2371.06 769.145C2371.37 769.003 2371.68 768.877 2372.01 768.735C2371.28 766.408 2370.76 764.294 2370.46 762.37C2370.17 760.461 2369.88 758.852 2369.62 757.559Z" fill="#231F20" />
        <path id="path103" d="M2246.49 792.11L2256.16 766.991L2265.42 792.11H2246.49ZM2290.92 817.743C2289.59 817.538 2288.23 817.167 2286.84 816.615C2285.44 816.071 2284.55 815.313 2284.14 814.359L2260.04 753.047C2259.51 752.905 2259.1 752.842 2258.84 752.842C2258.05 752.842 2257.41 753.426 2256.95 754.585L2232.94 814.052C2232.48 815.148 2231.73 815.944 2230.69 816.465C2229.67 816.97 2228.12 817.403 2226.06 817.743C2225.53 817.814 2225.19 818.019 2225.02 818.358C2224.85 818.697 2224.77 819.115 2224.77 819.588C2224.77 820.14 2224.84 820.684 2224.97 821.229C2226.5 821.024 2227.96 820.882 2229.36 820.818C2230.75 820.747 2232.11 820.716 2233.44 820.716C2235.37 820.716 2237.33 820.771 2239.31 820.866C2241.31 820.968 2243.2 821.095 2245 821.229C2245.12 820.542 2245.19 819.998 2245.19 819.588C2245.19 819.178 2245.11 818.823 2244.95 818.516C2244.78 818.208 2244.46 818.019 2244 817.948C2239.94 817.332 2237.92 816.307 2237.92 814.872C2237.92 814.32 2238.09 813.634 2238.42 812.821L2244.79 796.314H2267.02L2273.28 813.231C2273.55 813.847 2273.69 814.359 2273.69 814.769C2273.69 815.653 2273.15 816.323 2272.1 816.765C2271.02 817.214 2269.64 817.601 2267.9 817.948C2267.71 817.948 2267.49 818.066 2267.26 818.303C2267.03 818.547 2266.91 818.973 2266.91 819.588C2266.91 819.998 2266.98 820.542 2267.11 821.229C2269.03 821.095 2271.2 820.968 2273.58 820.866C2275.98 820.771 2278.1 820.716 2279.96 820.716C2281.76 820.716 2283.68 820.771 2285.74 820.866C2287.8 820.968 2289.89 821.095 2292.01 821.229C2292.15 820.542 2292.22 819.998 2292.22 819.588C2292.22 818.973 2292.1 818.547 2291.87 818.303C2291.64 818.066 2291.32 817.885 2290.92 817.743Z" fill="#231F20" />
        <path id="path99" d="M2211.92 753.562C2210.85 753.704 2209.41 753.814 2207.59 753.917C2205.76 754.027 2204.05 754.067 2202.46 754.067C2200.99 754.067 2199.31 754.027 2197.42 753.917C2195.53 753.814 2193.72 753.704 2192 753.562C2191.86 754.106 2191.8 754.658 2191.8 755.202C2191.8 756.299 2192.16 756.874 2192.9 756.945C2195.01 757.221 2196.56 757.592 2197.53 758.065C2198.49 758.554 2198.98 759.272 2198.98 760.226C2198.98 760.494 2198.94 760.802 2198.87 761.149C2198.8 761.488 2198.7 761.867 2198.57 762.269L2184.42 803.904L2167.59 754.177C2167.33 753.286 2166.86 752.836 2166.19 752.836C2165.92 752.836 2165.6 752.907 2165.2 753.049L2148.06 803.904L2133.02 761.559C2132.82 761.149 2132.72 760.731 2132.72 760.321C2132.72 759.304 2133.25 758.531 2134.31 758.018C2135.38 757.505 2136.87 757.15 2138.8 756.945C2139.53 756.803 2139.9 756.228 2139.9 755.202C2139.9 754.784 2139.83 754.24 2139.69 753.562C2137.64 753.704 2135.43 753.814 2133.07 753.917C2130.71 754.027 2128.7 754.067 2127.04 754.067C2126.24 754.067 2125.33 754.051 2124.3 754.027C2123.28 753.988 2122.21 753.956 2121.11 753.917C2120.02 753.885 2118.92 753.83 2117.83 753.759C2116.73 753.704 2115.72 753.633 2114.79 753.562C2114.66 754.24 2114.59 754.753 2114.59 755.092C2114.59 756.188 2114.96 756.843 2115.68 757.04C2118.08 757.387 2119.72 757.797 2120.62 758.278C2121.51 758.751 2122.12 759.469 2122.46 760.431L2143.88 820.103C2144.28 821.334 2144.87 821.949 2145.67 821.949C2146.07 821.949 2146.4 821.878 2146.67 821.744L2163.6 771.804L2180.24 820.103C2180.64 821.334 2181.24 821.949 2182.04 821.949C2182.37 821.949 2182.73 821.878 2183.13 821.744L2204.15 760.944C2204.62 759.643 2205.37 758.736 2206.39 758.223C2207.42 757.71 2208.93 757.324 2210.92 757.04C2211.73 756.914 2212.12 756.299 2212.12 755.202C2212.12 754.997 2212.08 754.721 2212.02 754.382C2211.96 754.043 2211.92 753.759 2211.92 753.562Z" fill="#231F20" />
      </g>
      <g id="&#38;">
        <path id="path95" d="M2010.73 814.407C2008.31 815.543 2005.7 816.103 2002.91 816.103C2001.78 816.103 2000.52 815.914 1999.13 815.543C1997.73 815.165 1996.42 814.518 1995.2 813.587C1993.96 812.664 1992.94 811.403 1992.1 809.794C1991.27 808.193 1990.86 806.158 1990.86 803.697C1990.86 800.818 1991.49 798.058 1992.75 795.392C1994.01 792.727 1995.81 790.368 1998.12 788.31C2002.38 792.829 2006.16 796.725 2009.49 800.006C2012.81 803.287 2015.8 806.118 2018.45 808.516C2015.73 811.316 2013.15 813.28 2010.73 814.407ZM1995.14 766.172C1995.14 764.192 1995.7 762.638 1996.84 761.503C1997.96 760.375 1999.4 759.815 2001.12 759.815C2003.85 759.815 2005.86 760.698 2007.2 762.48C2008.52 764.263 2009.19 766.787 2009.19 770.068C2009.19 771.85 2008.79 773.759 2007.99 775.801C2007.2 777.86 2005.83 779.768 2003.9 781.551C2000.45 778.065 1998.12 775.139 1996.94 772.789C1995.74 770.423 1995.14 768.222 1995.14 766.172ZM2046.39 818.256C2045.84 818.122 2045.28 818.035 2044.75 817.996C2044.22 817.964 2043.89 817.909 2043.76 817.846C2043.03 817.641 2042.2 817.262 2041.26 816.718C2040.33 816.174 2039.19 815.385 2037.83 814.36C2036.46 813.335 2034.85 812.018 2033 810.409C2031.14 808.808 2028.98 806.805 2026.52 804.407C2028.52 801.41 2030.35 798.279 2032 795.029C2033.66 791.788 2035.22 788.562 2036.69 785.337C2037.15 784.319 2037.6 783.515 2038.03 782.939C2038.46 782.355 2038.89 781.906 2039.32 781.598C2039.76 781.298 2040.26 781.054 2040.87 780.88C2041.47 780.715 2042.23 780.526 2043.15 780.321C2044.03 780.108 2044.45 779.634 2044.45 778.885C2044.45 778.751 2044.42 778.491 2044.36 778.112C2044.29 777.742 2044.22 777.418 2044.16 777.134C2041.97 777.347 2039.34 777.442 2036.29 777.442C2034.69 777.442 2033.13 777.434 2031.6 777.402C2030.07 777.363 2028.68 777.276 2027.42 777.134C2027.28 777.347 2027.2 777.655 2027.18 778.065C2027.14 778.467 2027.12 778.751 2027.12 778.885C2027.12 779.705 2027.55 780.147 2028.42 780.218C2030.14 780.557 2031.28 780.92 2031.8 781.298C2032.33 781.669 2032.6 782.237 2032.6 782.986C2032.6 783.736 2032.38 784.816 2031.96 786.22C2031.52 787.624 2030.92 789.154 2030.16 790.834C2029.4 792.506 2028.48 794.296 2027.42 796.205C2026.36 798.129 2025.2 799.975 2023.93 801.749C2021.6 799.486 2018.98 796.875 2016.06 793.902C2013.14 790.928 2009.89 787.569 2006.3 783.806C2009.89 781.346 2012.39 778.917 2013.82 776.527C2015.25 774.137 2015.96 771.74 2015.96 769.35C2015.96 767.362 2015.62 765.541 2014.91 763.861C2014.22 762.189 2013.24 760.753 2011.98 759.554C2010.71 758.364 2009.22 757.417 2007.5 756.739C2005.77 756.061 2003.87 755.714 2001.82 755.714C1997.56 755.714 1994.09 756.857 1991.41 759.144C1988.71 761.439 1987.37 764.46 1987.37 768.222C1987.37 769.657 1987.49 771.038 1987.72 772.371C1987.95 773.703 1988.4 775.076 1989.07 776.472C1989.73 777.876 1990.59 779.335 1991.66 780.833C1992.71 782.34 1994.11 783.98 1995.84 785.755C1991.59 788.491 1988.3 791.465 1985.98 794.675C1983.66 797.885 1982.48 801.434 1982.48 805.338C1982.48 808.208 1982.94 810.701 1983.83 812.822C1984.73 814.936 1985.98 816.663 1987.57 817.996C1989.17 819.329 1991.07 820.323 1993.3 820.969C1995.53 821.624 1997.93 821.947 2000.52 821.947C2004.71 821.947 2008.51 820.954 2011.93 818.974C2015.35 816.986 2018.49 814.36 2021.34 811.079C2024.13 813.54 2026.54 815.472 2028.56 816.868C2030.59 818.272 2032.33 819.297 2033.8 819.944C2035.25 820.599 2036.52 821.009 2037.58 821.174C2038.65 821.348 2039.64 821.435 2040.57 821.435C2043.82 821.435 2046.41 821.529 2048.34 821.742C2048.47 821.403 2048.56 821.04 2048.59 820.662C2048.62 820.291 2048.64 820.031 2048.64 819.897C2048.64 819.487 2048.4 819.147 2047.94 818.864C2047.48 818.595 2046.96 818.39 2046.39 818.256" fill="#231F20" />
      </g>
      <g id="restoration">
        <path id="path91" d="M1902.4 753.916C1900.8 754.027 1899.28 754.074 1897.81 754.074C1896.28 754.074 1894.66 754.027 1892.93 753.916C1891.2 753.814 1889.51 753.703 1887.85 753.561C1887.71 754.24 1887.65 754.784 1887.65 755.202C1887.65 756.298 1888.01 756.874 1888.75 756.945C1891.27 757.284 1893.06 757.757 1894.13 758.372C1895.19 758.995 1895.72 760.052 1895.72 761.559V804.408L1859.96 755.304C1859.56 754.752 1859.05 754.413 1858.42 754.279C1857.78 754.137 1856.5 754.074 1854.58 754.074C1853.65 754.074 1852.59 754.058 1851.39 754.027C1850.19 753.987 1849.06 753.94 1848 753.869C1846.81 753.798 1845.54 753.703 1844.22 753.561C1844.15 753.83 1844.12 754.074 1844.12 754.279C1844.05 754.547 1844.02 754.855 1844.02 755.202C1844.02 756.227 1844.39 756.803 1845.11 756.945C1847.51 757.284 1849.08 757.741 1849.85 758.333C1850.61 758.909 1850.99 759.745 1850.99 760.841V813.54C1850.99 814.905 1850.57 815.859 1849.74 816.411C1848.92 816.955 1847.31 817.476 1844.91 817.949C1844.18 818.083 1843.81 818.627 1843.81 819.59C1843.81 820 1843.88 820.544 1844.02 821.23C1845.47 821.096 1847.11 820.97 1848.9 820.867C1850.69 820.773 1852.25 820.717 1853.58 820.717C1855.04 820.717 1856.62 820.773 1858.31 820.867C1860.01 820.97 1861.69 821.096 1863.35 821.23C1863.48 820.544 1863.54 820 1863.54 819.59C1863.54 818.627 1863.21 818.083 1862.55 817.949C1859.89 817.476 1858.1 816.955 1857.17 816.411C1856.24 815.859 1855.77 814.905 1855.77 813.54V765.25L1896.21 820.102C1896.75 820.851 1897.22 821.348 1897.62 821.585C1898.01 821.822 1898.44 821.948 1898.91 821.948C1899.11 821.948 1899.37 821.924 1899.7 821.893C1900.04 821.861 1900.27 821.806 1900.4 821.743V761.346C1900.4 759.989 1900.82 758.995 1901.65 758.372C1902.48 757.757 1904.02 757.284 1906.28 756.945C1906.95 756.874 1907.28 756.298 1907.28 755.202C1907.28 754.784 1907.21 754.24 1907.07 753.561C1905.55 753.703 1903.99 753.814 1902.4 753.916Z" fill="#231F20" />
        <path id="path87" d="M1800.63 802.261C1799.6 805.266 1798.16 807.869 1796.3 810.054C1794.44 812.246 1792.21 813.942 1789.61 815.18C1787.03 816.41 1784.18 817.026 1781.06 817.026C1777.2 817.026 1773.78 816.142 1770.79 814.36C1767.81 812.585 1765.3 810.101 1763.27 806.93C1761.25 803.744 1759.7 799.99 1758.64 795.644C1757.57 791.307 1757.05 786.614 1757.05 781.551C1757.05 777.726 1757.61 774.342 1758.74 771.4C1759.87 768.458 1761.38 765.982 1763.27 763.971C1765.16 761.952 1767.35 760.406 1769.84 759.357C1772.34 758.292 1774.94 757.756 1777.67 757.756C1781.78 757.756 1785.39 758.655 1788.47 760.43C1791.56 762.204 1794.12 764.649 1796.14 767.757C1798.17 770.872 1799.68 774.523 1800.68 778.735C1801.68 782.939 1802.17 787.497 1802.17 792.419C1802.17 795.968 1801.66 799.249 1800.63 802.261ZM1803.81 763.253C1800.99 760.067 1797.42 757.543 1793.11 755.666C1788.79 753.789 1783.74 752.835 1777.97 752.835C1773.78 752.835 1769.8 753.765 1766.01 755.611C1762.23 757.448 1758.91 759.956 1756.05 763.095C1753.2 766.242 1750.94 769.894 1749.28 774.066C1747.61 778.23 1746.79 782.678 1746.79 787.395C1746.79 792.584 1747.56 797.301 1749.12 801.544C1750.69 805.779 1752.88 809.423 1755.71 812.459C1758.53 815.503 1761.89 817.846 1765.81 819.486C1769.73 821.127 1774.04 821.947 1778.76 821.947C1783.42 821.947 1787.78 821.158 1791.86 819.589C1795.95 818.019 1799.5 815.74 1802.52 812.767C1805.55 809.793 1807.91 806.173 1809.65 801.899C1811.37 797.632 1812.24 792.797 1812.24 787.395C1812.24 782.813 1811.54 778.435 1810.14 774.271C1808.75 770.099 1806.64 766.424 1803.81 763.253Z" fill="#231F20" />
        <path id="path83" d="M1708.74 758.429C1709.66 757.853 1711.39 757.348 1713.92 756.946C1714.58 756.804 1714.91 756.228 1714.91 755.203C1714.91 754.785 1714.84 754.241 1714.71 753.563C1712.65 753.697 1710.54 753.815 1708.38 753.917C1706.22 754.02 1704.31 754.067 1702.65 754.067C1700.93 754.067 1698.99 754.02 1696.83 753.917C1694.67 753.815 1692.6 753.697 1690.6 753.563C1690.47 754.241 1690.4 754.785 1690.4 755.203C1690.4 755.613 1690.47 755.984 1690.6 756.323C1690.73 756.67 1691 756.875 1691.39 756.946C1693.91 757.348 1695.65 757.853 1696.57 758.429C1697.51 759.004 1697.98 759.982 1697.98 761.347V813.534C1697.98 814.906 1697.51 815.861 1696.57 816.413C1695.65 816.957 1693.91 817.47 1691.39 817.951C1690.73 818.077 1690.4 818.629 1690.4 819.591C1690.4 820.001 1690.47 820.546 1690.6 821.232C1692.53 821.09 1694.57 820.971 1696.73 820.869C1698.89 820.766 1700.87 820.711 1702.65 820.711C1704.51 820.711 1706.48 820.766 1708.54 820.869C1710.59 820.971 1712.65 821.09 1714.71 821.232C1714.84 820.546 1714.91 820.001 1714.91 819.591C1714.91 818.629 1714.58 818.077 1713.92 817.951C1711.39 817.407 1709.66 816.87 1708.74 816.358C1707.8 815.845 1707.33 814.906 1707.33 813.534V761.347C1707.33 759.982 1707.8 759.004 1708.74 758.429" fill="#231F20" />
        <path id="path79" d="M1660.32 757.559C1660.06 756.258 1659.77 755.248 1659.47 754.53C1659.18 753.813 1658.69 753.45 1658.03 753.45C1657.5 753.45 1656.81 753.489 1655.99 753.56C1655.15 753.631 1654.24 753.702 1653.24 753.765L1650.26 753.97C1649.27 754.041 1648.36 754.073 1647.57 754.073H1614.29C1613.43 754.073 1612.51 754.041 1611.5 753.97C1610.51 753.899 1609.52 753.828 1608.57 753.765C1607.6 753.702 1606.69 753.631 1605.83 753.56C1604.96 753.489 1604.29 753.45 1603.83 753.45C1603.17 753.45 1602.68 753.797 1602.38 754.475C1602.09 755.161 1601.81 756.139 1601.54 757.401C1601.28 758.671 1600.98 760.256 1600.64 762.173C1600.31 764.081 1599.81 766.266 1599.16 768.735C1599.69 769.145 1600.31 769.35 1601.05 769.35C1601.31 769.35 1601.59 769.279 1601.89 769.145C1602.19 769.003 1602.41 768.766 1602.54 768.427C1603.33 766.716 1604.1 765.217 1604.83 763.916C1605.56 762.622 1606.43 761.558 1607.43 760.729C1608.42 759.917 1609.59 759.302 1610.96 758.892C1612.31 758.482 1613.99 758.277 1615.99 758.277H1626.25V813.027C1626.25 814.596 1625.59 815.693 1624.25 816.308C1622.93 816.915 1620.77 817.436 1617.78 817.846C1617.11 817.98 1616.78 818.524 1616.78 819.486C1616.78 819.959 1616.85 820.543 1616.99 821.229C1619.11 821.095 1621.38 820.969 1623.81 820.866C1626.23 820.772 1628.61 820.717 1630.93 820.717C1633.33 820.717 1635.69 820.772 1638.06 820.866C1640.41 820.969 1642.65 821.095 1644.78 821.229C1644.91 820.543 1644.98 819.959 1644.98 819.486C1644.98 818.39 1644.61 817.846 1643.88 817.846C1640.9 817.507 1638.76 817.01 1637.5 816.355C1636.24 815.708 1635.61 814.596 1635.61 813.027V758.277H1645.87C1647.86 758.277 1649.54 758.482 1650.9 758.892C1652.26 759.302 1653.44 759.917 1654.39 760.729C1655.36 761.558 1656.2 762.622 1656.94 763.916C1657.66 765.217 1658.39 766.716 1659.13 768.427C1659.25 768.766 1659.49 769.003 1659.83 769.145C1660.16 769.279 1660.45 769.35 1660.72 769.35C1661.11 769.35 1661.46 769.279 1661.76 769.145C1662.06 769.003 1662.38 768.877 1662.71 768.735C1661.98 766.408 1661.46 764.294 1661.17 762.37C1660.87 760.461 1660.59 758.852 1660.32 757.559Z" fill="#231F20" />
        <path id="path75" d="M1537.19 792.11L1546.85 766.991L1556.12 792.11H1537.19ZM1581.62 817.743C1580.29 817.538 1578.93 817.167 1577.54 816.615C1576.14 816.071 1575.24 815.313 1574.85 814.359L1550.74 753.047C1550.2 752.905 1549.8 752.842 1549.54 752.842C1548.74 752.842 1548.12 753.425 1547.65 754.585L1523.63 814.052C1523.17 815.148 1522.42 815.944 1521.39 816.465C1520.37 816.97 1518.83 817.403 1516.77 817.743C1516.24 817.814 1515.88 818.019 1515.72 818.358C1515.56 818.697 1515.47 819.115 1515.47 819.588C1515.47 820.14 1515.54 820.684 1515.66 821.229C1517.2 821.024 1518.66 820.882 1520.05 820.818C1521.45 820.747 1522.8 820.716 1524.14 820.716C1526.06 820.716 1528.02 820.771 1530.01 820.866C1532.01 820.968 1533.9 821.095 1535.69 821.229C1535.82 820.542 1535.89 819.998 1535.89 819.588C1535.89 819.178 1535.81 818.823 1535.64 818.516C1535.47 818.208 1535.16 818.019 1534.7 817.948C1530.64 817.332 1528.62 816.307 1528.62 814.872C1528.62 814.32 1528.78 813.634 1529.12 812.821L1535.5 796.314H1557.71L1563.99 813.231C1564.25 813.847 1564.39 814.359 1564.39 814.769C1564.39 815.653 1563.85 816.323 1562.79 816.765C1561.73 817.214 1560.34 817.601 1558.61 817.948C1558.41 817.948 1558.19 818.066 1557.96 818.303C1557.73 818.547 1557.61 818.973 1557.61 819.588C1557.61 819.998 1557.68 820.542 1557.8 821.229C1559.73 821.095 1561.89 820.968 1564.29 820.866C1566.68 820.771 1568.8 820.716 1570.66 820.716C1572.45 820.716 1574.39 820.771 1576.44 820.866C1578.5 820.968 1580.59 821.095 1582.71 821.229C1582.85 820.542 1582.92 819.998 1582.92 819.588C1582.92 818.973 1582.79 818.547 1582.56 818.303C1582.33 818.066 1582.02 817.885 1581.62 817.743" fill="#231F20" />
        <path id="path71" d="M1454.9 786.572H1449.62V758.274H1454.6C1457.32 758.274 1459.63 758.653 1461.52 759.402C1463.41 760.152 1464.95 761.177 1466.1 762.478C1467.27 763.772 1468.12 765.317 1468.65 767.092C1469.18 768.874 1469.44 770.822 1469.44 772.936C1469.44 777.991 1468.18 781.533 1465.65 783.544C1463.13 785.563 1459.54 786.572 1454.9 786.572ZM1492.15 818.262C1490.83 817.915 1489.4 817.402 1487.87 816.716C1486.35 816.03 1484.95 814.799 1483.69 813.025L1467.05 789.238C1469.25 788.418 1471.15 787.345 1472.78 786.012C1474.41 784.679 1475.74 783.22 1476.77 781.651C1477.79 780.081 1478.56 778.473 1479.05 776.832C1479.55 775.192 1479.81 773.614 1479.81 772.116C1479.81 766.579 1477.98 762.186 1474.33 758.945C1470.67 755.695 1465.26 754.071 1458.09 754.071H1444.64C1442.71 754.071 1440.68 754.023 1438.56 753.913C1436.43 753.818 1434.37 753.7 1432.39 753.558C1432.25 754.236 1432.19 754.789 1432.19 755.199C1432.19 756.295 1432.52 756.871 1433.18 756.942C1435.96 757.281 1437.84 757.785 1438.81 758.432C1439.76 759.079 1440.26 760.057 1440.26 761.35V813.537C1440.26 814.91 1439.73 815.88 1438.71 816.463C1437.68 817.039 1435.9 817.536 1433.37 817.954C1432.65 818.08 1432.29 818.624 1432.29 819.594C1432.29 819.997 1432.35 820.549 1432.48 821.235C1434.48 821.093 1436.6 820.967 1438.86 820.872C1441.11 820.77 1443.11 820.714 1444.84 820.714C1447.29 820.714 1449.8 820.77 1452.36 820.872C1454.92 820.967 1457.09 821.093 1458.88 821.235C1459.01 820.549 1459.08 819.957 1459.08 819.484C1459.08 818.459 1458.69 817.883 1457.89 817.741C1455.09 817.402 1453.02 816.96 1451.66 816.408C1450.29 815.864 1449.62 814.839 1449.62 813.34V790.776H1456.98L1472.93 814.46C1474.2 816.377 1475.53 817.954 1476.96 819.176C1478.39 820.407 1479.81 821.022 1481.2 821.022C1483.05 821.022 1485.08 821.077 1487.28 821.18C1489.47 821.274 1491.32 821.4 1492.86 821.535C1492.99 820.856 1493.06 820.241 1493.06 819.689C1493.06 818.869 1492.75 818.388 1492.15 818.262" fill="#231F20" />
        <path id="path67" d="M1388.6 802.261C1387.57 805.266 1386.13 807.869 1384.27 810.054C1382.4 812.246 1380.18 813.942 1377.59 815.18C1375.01 816.41 1372.15 817.026 1369.02 817.026C1365.17 817.026 1361.75 816.142 1358.76 814.36C1355.78 812.585 1353.27 810.101 1351.24 806.93C1349.21 803.744 1347.67 799.99 1346.62 795.644C1345.55 791.307 1345.02 786.614 1345.02 781.551C1345.02 777.726 1345.58 774.342 1346.71 771.4C1347.84 768.458 1349.35 765.982 1351.24 763.971C1353.14 761.952 1355.33 760.406 1357.82 759.357C1360.31 758.292 1362.92 757.756 1365.64 757.756C1369.76 757.756 1373.36 758.655 1376.45 760.43C1379.54 762.204 1382.09 764.649 1384.12 767.757C1386.14 770.872 1387.65 774.523 1388.66 778.735C1389.65 782.939 1390.14 787.497 1390.14 792.419C1390.14 795.968 1389.63 799.249 1388.6 802.261ZM1391.79 763.253C1388.97 760.067 1385.4 757.543 1381.08 755.666C1376.76 753.789 1371.72 752.835 1365.93 752.835C1361.75 752.835 1357.77 753.765 1353.98 755.611C1350.19 757.448 1346.88 759.956 1344.03 763.095C1341.17 766.242 1338.91 769.894 1337.25 774.066C1335.59 778.23 1334.76 782.678 1334.76 787.395C1334.76 792.584 1335.53 797.301 1337.1 801.544C1338.65 805.779 1340.85 809.423 1343.67 812.459C1346.49 815.503 1349.86 817.846 1353.78 819.486C1357.7 821.127 1362.02 821.947 1366.73 821.947C1371.38 821.947 1375.75 821.158 1379.83 819.589C1383.92 818.019 1387.48 815.74 1390.5 812.767C1393.52 809.793 1395.89 806.173 1397.62 801.899C1399.34 797.632 1400.21 792.797 1400.21 787.395C1400.21 782.813 1399.51 778.435 1398.11 774.271C1396.73 770.099 1394.61 766.424 1391.79 763.253Z" fill="#231F20" />
        <path id="path63" d="M1306.76 757.559C1306.5 756.258 1306.22 755.248 1305.92 754.53C1305.62 753.813 1305.14 753.45 1304.47 753.45C1303.94 753.45 1303.26 753.489 1302.43 753.56C1301.6 753.631 1300.68 753.702 1299.69 753.765L1296.71 753.97C1295.71 754.041 1294.81 754.073 1294.01 754.073H1260.74C1259.88 754.073 1258.95 754.041 1257.95 753.97C1256.95 753.899 1255.97 753.828 1255.01 753.765C1254.05 753.702 1253.13 753.631 1252.28 753.56C1251.4 753.489 1250.74 753.45 1250.28 753.45C1249.62 753.45 1249.13 753.797 1248.83 754.475C1248.54 755.161 1248.25 756.139 1247.98 757.401C1247.72 758.671 1247.43 760.256 1247.09 762.173C1246.76 764.081 1246.25 766.266 1245.6 768.735C1246.13 769.145 1246.76 769.35 1247.49 769.35C1247.75 769.35 1248.04 769.279 1248.34 769.145C1248.64 769.003 1248.85 768.766 1248.98 768.427C1249.78 766.716 1250.54 765.217 1251.28 763.916C1252 762.622 1252.87 761.558 1253.87 760.729C1254.87 759.917 1256.04 759.302 1257.4 758.892C1258.76 758.482 1260.44 758.277 1262.44 758.277H1272.7V813.027C1272.7 814.596 1272.03 815.693 1270.7 816.308C1269.37 816.915 1267.22 817.436 1264.22 817.846C1263.56 817.98 1263.23 818.524 1263.23 819.486C1263.23 819.959 1263.3 820.543 1263.43 821.229C1265.56 821.095 1267.82 820.969 1270.25 820.866C1272.68 820.772 1275.05 820.717 1277.37 820.717C1279.77 820.717 1282.14 820.772 1284.5 820.866C1286.85 820.969 1289.1 821.095 1291.23 821.229C1291.35 820.543 1291.42 819.959 1291.42 819.486C1291.42 818.39 1291.05 817.846 1290.32 817.846C1287.34 817.507 1285.21 817.01 1283.95 816.355C1282.68 815.708 1282.06 814.596 1282.06 813.027V758.277H1292.32C1294.31 758.277 1295.99 758.482 1297.34 758.892C1298.71 759.302 1299.88 759.917 1300.84 760.729C1301.8 761.558 1302.65 762.622 1303.38 763.916C1304.1 765.217 1304.84 766.716 1305.57 768.427C1305.7 768.766 1305.93 769.003 1306.27 769.145C1306.6 769.279 1306.9 769.35 1307.17 769.35C1307.56 769.35 1307.9 769.279 1308.2 769.145C1308.51 769.003 1308.82 768.877 1309.15 768.735C1308.42 766.408 1307.9 764.294 1307.61 762.37C1307.31 760.461 1307.03 758.852 1306.76 757.559Z" fill="#231F20" />
        <path id="path59" d="M1199.07 781.551C1193.96 779.429 1190.09 777.347 1187.46 775.297C1184.85 773.246 1183.54 770.612 1183.54 767.402C1183.54 765.903 1183.85 764.531 1184.48 763.301C1185.11 762.07 1185.96 761.021 1187.03 760.17C1188.08 759.318 1189.33 758.671 1190.76 758.222C1192.19 757.78 1193.69 757.559 1195.29 757.559C1199.41 757.559 1202.67 758.442 1205.05 760.225C1207.45 761.999 1209.5 764.839 1211.23 768.735C1211.43 769.145 1211.72 769.523 1212.12 769.863C1212.52 770.21 1213.16 770.375 1214.02 770.375C1214.35 770.375 1214.85 770.304 1215.52 770.17C1215.12 768.12 1214.8 765.919 1214.56 763.561C1214.33 761.195 1214.15 758.994 1214.02 756.944C1210.43 755.509 1207.21 754.475 1204.35 753.868C1201.49 753.253 1198.51 752.945 1195.39 752.945C1192.4 752.945 1189.71 753.426 1187.32 754.381C1184.93 755.343 1182.89 756.636 1181.19 758.277C1179.5 759.917 1178.2 761.85 1177.31 764.066C1176.41 766.29 1175.96 768.664 1175.96 771.195C1175.96 774.066 1176.41 776.543 1177.31 778.625C1178.2 780.715 1179.48 782.545 1181.14 784.114C1182.8 785.683 1184.8 787.072 1187.12 788.27C1189.44 789.461 1192.04 790.605 1194.89 791.701C1199.27 793.342 1202.64 795.187 1205 797.238C1207.36 799.288 1208.54 802.088 1208.54 805.645C1208.54 807.214 1208.27 808.681 1207.74 810.054C1207.21 811.418 1206.41 812.648 1205.35 813.745C1204.29 814.841 1202.97 815.693 1201.37 816.308C1199.78 816.915 1197.92 817.223 1195.79 817.223C1191.07 817.223 1187.41 816.071 1184.78 813.745C1182.15 811.418 1180.01 807.798 1178.35 802.877C1178.02 802.056 1177.64 801.457 1177.2 801.086C1176.78 800.708 1176.17 800.519 1175.36 800.519C1174.7 800.519 1174.14 800.621 1173.68 800.818C1174.21 803.492 1174.67 806.158 1175.06 808.823C1175.46 811.489 1175.76 814.249 1175.96 817.128C1178.29 818.556 1181.13 819.723 1184.48 820.614C1187.83 821.497 1191.57 821.947 1195.69 821.947C1199.6 821.947 1202.97 821.434 1205.75 820.409C1208.54 819.384 1210.81 817.964 1212.58 816.158C1214.33 814.344 1215.63 812.223 1216.46 809.793C1217.29 807.364 1217.71 804.754 1217.71 801.954C1217.71 797.301 1216.19 793.389 1213.17 790.218C1210.15 787.032 1205.45 784.146 1199.07 781.551Z" fill="#231F20" />
        <path id="path55" d="M1140.2 804.518C1139.4 804.518 1138.9 804.755 1138.7 805.236C1137.91 806.876 1137.08 808.375 1136.21 809.747C1135.35 811.111 1134.37 812.286 1133.28 813.28C1132.18 814.274 1130.92 815.063 1129.49 815.638C1128.06 816.222 1126.38 816.514 1124.46 816.514H1118.97C1114.86 816.514 1111.91 816.269 1110.11 815.796C1108.32 815.315 1107.42 814.361 1107.42 812.917V788.729H1122.96C1124.29 788.729 1125.24 789.391 1125.8 790.724C1126.37 792.057 1126.81 793.681 1127.15 795.598C1127.35 796.481 1127.98 796.931 1129.04 796.931C1129.5 796.931 1130 796.86 1130.54 796.726C1130.34 794.604 1130.2 792.711 1130.14 791.031C1130.07 789.359 1130.04 787.94 1130.04 786.78C1130.04 785.337 1130.09 783.665 1130.18 781.749C1130.28 779.84 1130.41 778.129 1130.54 776.63C1130.34 776.559 1130.07 776.488 1129.74 776.417C1129.41 776.354 1129.14 776.323 1128.94 776.323C1127.94 776.323 1127.35 776.764 1127.15 777.655C1126.81 779.572 1126.37 781.189 1125.8 782.522C1125.24 783.854 1124.29 784.525 1122.96 784.525H1107.42V758.277H1122.16C1124.16 758.277 1125.84 758.482 1127.2 758.893C1128.55 759.303 1129.72 759.918 1130.69 760.73C1131.65 761.558 1132.49 762.599 1133.23 763.861C1133.96 765.131 1134.72 766.645 1135.52 768.428C1135.79 769.043 1136.34 769.351 1137.2 769.351C1137.87 769.351 1138.47 769.145 1139 768.735C1138.27 767.505 1137.78 765.999 1137.5 764.224C1137.24 762.442 1137.01 760.77 1136.81 759.2C1136.61 757.631 1136.36 756.274 1136.06 755.146C1135.76 754.026 1135.19 753.451 1134.31 753.451C1133.59 753.451 1132.13 753.561 1129.94 753.758C1127.75 753.971 1125.16 754.074 1122.16 754.074H1102.54C1101.02 754.074 1099.29 754.042 1097.36 753.971C1095.43 753.9 1093.05 753.758 1090.19 753.561C1090.12 753.829 1090.07 754.082 1090.04 754.326C1090 754.571 1089.99 754.855 1089.99 755.202C1089.99 756.227 1090.32 756.803 1090.99 756.945C1093.77 757.489 1095.65 758.017 1096.62 758.53C1097.58 759.042 1098.06 759.989 1098.06 761.345V813.54C1098.06 814.905 1097.51 815.859 1096.41 816.411C1095.32 816.955 1093.51 817.476 1090.99 817.949C1090.32 818.083 1089.99 818.628 1089.99 819.59C1089.99 820 1090.05 820.544 1090.19 821.23C1092.17 821.096 1094.27 820.97 1096.46 820.867C1098.66 820.773 1100.72 820.718 1102.64 820.718H1124.46C1125.32 820.718 1126.34 820.749 1127.55 820.812C1128.74 820.883 1129.92 820.938 1131.09 820.97C1132.24 821.009 1133.33 821.057 1134.31 821.12C1135.32 821.191 1136.08 821.23 1136.61 821.23C1137.27 821.23 1137.82 820.647 1138.25 819.479C1138.69 818.32 1139.1 816.916 1139.5 815.276C1139.9 813.635 1140.31 811.908 1140.74 810.102C1141.18 808.296 1141.69 806.734 1142.28 805.441C1141.95 805.236 1141.61 805.023 1141.25 804.826C1140.88 804.62 1140.53 804.518 1140.2 804.518Z" fill="#231F20" />
        <path id="path51" d="M1025.33 786.572H1020.06V758.274H1025.03C1027.75 758.274 1030.07 758.653 1031.95 759.402C1033.85 760.152 1035.38 761.177 1036.54 762.478C1037.7 763.772 1038.55 765.317 1039.08 767.092C1039.61 768.874 1039.88 770.822 1039.88 772.936C1039.88 777.991 1038.61 781.533 1036.09 783.544C1033.57 785.563 1029.98 786.572 1025.33 786.572ZM1062.59 818.262C1061.26 817.915 1059.84 817.402 1058.32 816.716C1056.78 816.03 1055.39 814.799 1054.12 813.025L1037.49 789.238C1039.68 788.418 1041.59 787.345 1043.22 786.012C1044.84 784.679 1046.18 783.22 1047.2 781.651C1048.23 780.081 1049 778.473 1049.49 776.832C1049.99 775.192 1050.24 773.614 1050.24 772.116C1050.24 766.579 1048.41 762.186 1044.76 758.945C1041.11 755.695 1035.7 754.071 1028.52 754.071H1015.07C1013.15 754.071 1011.13 754.023 1008.99 753.913C1006.87 753.818 1004.81 753.7 1002.82 753.558C1002.69 754.236 1002.62 754.789 1002.62 755.199C1002.62 756.295 1002.95 756.871 1003.62 756.942C1006.4 757.281 1008.28 757.785 1009.24 758.432C1010.21 759.079 1010.69 760.057 1010.69 761.35V813.537C1010.69 814.91 1010.17 815.88 1009.15 816.463C1008.11 817.039 1006.34 817.536 1003.81 817.954C1003.09 818.08 1002.72 818.624 1002.72 819.594C1002.72 819.997 1002.79 820.549 1002.92 821.235C1004.91 821.093 1007.03 820.967 1009.29 820.872C1011.55 820.77 1013.55 820.714 1015.28 820.714C1017.73 820.714 1020.24 820.77 1022.8 820.872C1025.35 820.967 1027.52 821.093 1029.33 821.235C1029.45 820.549 1029.52 819.957 1029.52 819.484C1029.52 818.459 1029.12 817.883 1028.33 817.741C1025.53 817.402 1023.46 816.96 1022.1 816.408C1020.73 815.864 1020.06 814.839 1020.06 813.34V790.776H1027.42L1043.37 814.46C1044.63 816.377 1045.97 817.954 1047.4 819.176C1048.83 820.407 1050.24 821.022 1051.64 821.022C1053.5 821.022 1055.52 821.077 1057.72 821.18C1059.91 821.274 1061.76 821.4 1063.29 821.535C1063.43 820.856 1063.49 820.241 1063.49 819.689C1063.49 818.869 1063.19 818.388 1062.59 818.262Z" fill="#231F20" />
      </g>
      <g id="lawless_2">
        <path id="path167" d="M2829.66 404.952L2787.81 391.789C2757.5 382.246 2744.37 370.14 2744.26 345.289C2744.14 317.117 2766.4 301.517 2798 301.674C2827.62 301.824 2854.27 315.752 2879.11 336.858L2912.92 261.862C2881.33 234.415 2837.27 214.32 2791.55 214.43C2724.11 214.58 2672.14 268.968 2672.25 342.402C2672.36 409.196 2699.87 454.15 2768.36 475.95L2806.37 488.032C2842.64 499.571 2854.25 509.319 2853.13 535.992C2851.95 563.841 2831.55 580.679 2798.92 580.781C2764.06 580.892 2726.78 566.491 2696.15 540.772L2660.01 615.965C2695.33 647.788 2747.14 668.223 2795.94 668.128C2871.92 667.994 2922.83 612.352 2922.72 536C2922.63 465.933 2895.41 425.64 2829.66 404.952Z" fill="#231F20" />
        <path id="path171" d="M3093.21 580.784C3058.35 580.886 3021.06 566.485 2990.44 540.774L2954.29 615.959C2989.61 647.79 3041.42 668.217 3090.22 668.13C3166.21 667.988 3217.11 612.355 3217.01 536.002C3216.91 465.936 3189.69 425.642 3123.94 404.955L3082.1 391.792C3051.78 382.249 3038.65 370.142 3038.54 345.291C3038.43 317.119 3060.68 301.519 3092.29 301.677C3121.9 301.827 3148.56 315.755 3173.39 336.86L3207.21 261.864C3175.62 234.418 3131.56 214.322 3085.84 214.433C3018.4 214.582 2966.42 268.97 2966.53 342.404C2966.64 409.19 2994.15 454.153 3062.64 475.952L3100.65 488.035C3136.92 499.573 3148.54 509.313 3147.41 535.994C3146.24 563.843 3125.84 580.681 3093.21 580.784Z" fill="#231F20" />
        <path id="path163" d="M2443.7 471.276H2566.51V386.043L2443.7 385.61V308.374H2618.59V220.381H2376.77V661.909H2618.98V573.726H2443.7V471.276Z" fill="#231F20" />
        <path id="path159" d="M2331.12 573.781H2176L2176.39 220.38H2109.07V661.909H2331.12V573.781Z" fill="#231F20" />
        <path id="path175" d="M1882.8 483.75L1782.43 220.377H1703.76L1749.61 333.033L1691.8 483.75L1591.44 220.377H1512.77L1692.61 662.253L1787.83 426.934L1883.6 662.253L2061.02 220.377H1983.82L1882.8 483.75Z" fill="#231F20" />
        <path id="path155" d="M1373.62 494.413L1416.81 375.007L1460.26 494.413H1373.62ZM1239.56 661.811H1313.07L1343.91 576.531H1490.15L1521.19 661.811H1593.31L1417.59 190.108L1239.56 661.811Z" fill="#231F20" />
        <path id="path151" d="M1071.31 220.379H1003.99V661.907H1226.05V573.78H1070.92L1071.31 220.379Z" fill="#231F20" />
      </g>
      <g id="divider">
        <path id="path47" d="M928.013 998.445L928.013 1.55505" stroke="#231F20" stroke-width="8" stroke-miterlimit="10" />
      </g>
    </g>
    <g id="logo">
      <path id="path43" d="M678.684 682.261L116.775 907.233L116.845 861.178C199.766 824.931 624.077 640.629 672.499 642.881C721.428 645.161 827.968 692.369 827.968 692.369L865.331 687.81L676.128 596.463L374.379 717.736L374.339 1.0693L200.78 105.704L200.571 340.503L241.077 348.976V771.302L116.895 821.217L117.581 322.938L1.51347 387.993L1.83176 998.281L105.925 951.481C152.706 931.101 624.037 726.3 675.064 728.67C723.993 730.95 830.534 778.168 830.534 778.168L867.887 773.608L678.684 682.261Z" fill="#231F20" />
    </g>
  </g>
</svg>