<svg class="logo" viewBox="0 0 600 1000" fill="none" xmlns="http://www.w3.org/2000/svg">
  <!-- viewBox="0 0 2170 1000" -->
  <g id="lawless">
  <g id="name">
    <g id="waterproofing">
      <path id="path147" d="M2106.76 684.764C2105.7 684.855 2104.46 684.926 2103.04 684.996C2101.61 685.062 2100.35 685.092 2099.25 685.092C2098.14 685.092 2096.85 685.062 2095.37 684.996C2093.88 684.926 2092.52 684.855 2091.29 684.764C2091.2 685.112 2091.16 685.465 2091.16 685.813C2091.16 686.075 2091.22 686.337 2091.35 686.599C2091.48 686.861 2091.71 687.012 2092.05 687.057C2093.67 687.279 2094.81 687.612 2095.49 688.07C2096.17 688.534 2096.51 689.35 2096.51 690.535V700.554C2095.66 700.821 2094.61 701.037 2093.36 701.209C2092.11 701.385 2090.87 701.471 2089.64 701.471C2087.22 701.471 2084.98 700.972 2082.92 699.964C2080.86 698.956 2079.08 697.54 2077.57 695.705C2076.06 693.871 2074.87 691.689 2074.01 689.154C2073.14 686.619 2072.7 683.847 2072.7 680.833C2072.7 678.258 2073.04 675.864 2073.72 673.662C2074.4 671.455 2075.41 669.555 2076.74 667.962C2078.08 666.37 2079.77 665.11 2081.8 664.192C2083.84 663.275 2086.22 662.822 2088.93 662.822C2092.33 662.822 2094.94 663.452 2096.76 664.717C2098.59 665.981 2099.89 668.078 2100.65 671.011C2100.82 671.576 2101.24 671.858 2101.92 671.858C2102.09 671.858 2102.31 671.838 2102.56 671.792C2102.81 671.752 2102.98 671.681 2103.06 671.596C2102.69 670.023 2102.37 668.421 2102.14 666.783C2101.91 665.14 2101.75 663.562 2101.67 662.03C2100.31 661.683 2099.04 661.385 2097.88 661.143C2096.71 660.907 2095.56 660.7 2094.41 660.523C2093.26 660.347 2092.11 660.231 2090.94 660.161C2089.77 660.095 2088.55 660.065 2087.28 660.065C2083.72 660.065 2080.59 660.73 2077.92 662.061C2075.25 663.396 2073.03 665.11 2071.27 667.206C2069.51 669.303 2068.19 671.661 2067.32 674.282C2066.46 676.902 2066.02 679.523 2066.02 682.144C2066.02 685.288 2066.46 688.206 2067.32 690.893C2068.19 693.579 2069.52 695.902 2071.3 697.867C2073.08 699.833 2075.32 701.385 2078.02 702.519C2080.72 703.653 2083.88 704.223 2087.53 704.223C2090.21 704.223 2092.54 704.127 2094.54 703.93C2096.53 703.734 2098.49 703.457 2100.39 703.109C2101.37 702.932 2101.96 702.721 2102.17 702.454C2102.38 702.192 2102.5 701.869 2102.5 701.471V689.809C2102.5 688.937 2102.76 688.292 2103.29 687.874C2103.82 687.461 2104.76 687.168 2106.12 686.992C2106.34 686.952 2106.51 686.851 2106.66 686.7C2106.81 686.548 2106.88 686.251 2106.88 685.813C2106.88 685.551 2106.84 685.203 2106.76 684.764Z"  />
      <path id="path143" d="M2043.48 660.753C2042.46 660.823 2041.49 660.854 2040.55 660.854C2039.58 660.854 2038.54 660.823 2037.44 660.753C2036.33 660.687 2035.24 660.617 2034.19 660.526C2034.1 660.959 2034.06 661.307 2034.06 661.574C2034.06 662.275 2034.29 662.643 2034.76 662.688C2036.38 662.905 2037.52 663.207 2038.2 663.6C2038.88 663.998 2039.22 664.674 2039.22 665.636V693.017L2016.36 661.64C2016.11 661.287 2015.78 661.07 2015.38 660.985C2014.98 660.894 2014.16 660.854 2012.93 660.854C2012.33 660.854 2011.65 660.843 2010.89 660.823C2010.12 660.798 2009.4 660.768 2008.72 660.722C2007.96 660.677 2007.16 660.617 2006.3 660.526C2006.26 660.697 2006.25 660.854 2006.25 660.985C2006.2 661.156 2006.18 661.352 2006.18 661.574C2006.18 662.229 2006.41 662.597 2006.88 662.688C2008.4 662.905 2009.41 663.197 2009.9 663.575C2010.39 663.943 2010.63 664.477 2010.63 665.178V698.852C2010.63 699.724 2010.37 700.334 2009.84 700.687C2009.31 701.035 2008.28 701.367 2006.75 701.67C2006.28 701.755 2006.05 702.103 2006.05 702.718C2006.05 702.98 2006.09 703.328 2006.18 703.766C2007.11 703.68 2008.15 703.6 2009.3 703.534C2010.44 703.474 2011.44 703.438 2012.29 703.438C2013.22 703.438 2014.23 703.474 2015.31 703.534C2016.4 703.6 2017.47 703.68 2018.53 703.766C2018.61 703.328 2018.66 702.98 2018.66 702.718C2018.66 702.103 2018.44 701.755 2018.02 701.67C2016.32 701.367 2015.18 701.035 2014.58 700.687C2013.99 700.334 2013.69 699.724 2013.69 698.852V667.995L2039.53 703.045C2039.88 703.524 2040.17 703.842 2040.43 703.993C2040.68 704.144 2040.95 704.225 2041.25 704.225C2041.38 704.225 2041.55 704.21 2041.76 704.189C2041.97 704.169 2042.12 704.134 2042.21 704.094V665.5C2042.21 664.633 2042.47 663.998 2043 663.6C2043.53 663.207 2044.52 662.905 2045.96 662.688C2046.39 662.643 2046.6 662.275 2046.6 661.574C2046.6 661.307 2046.56 660.959 2046.47 660.526C2045.5 660.617 2044.5 660.687 2043.48 660.753Z"  />
      <path id="path139" d="M1981.93 663.636C1982.52 663.268 1983.63 662.946 1985.24 662.689C1985.66 662.598 1985.87 662.23 1985.87 661.575C1985.87 661.308 1985.83 660.96 1985.75 660.526C1984.43 660.612 1983.08 660.688 1981.7 660.753C1980.32 660.819 1979.11 660.849 1978.04 660.849C1976.94 660.849 1975.7 660.819 1974.32 660.753C1972.94 660.688 1971.61 660.612 1970.34 660.526C1970.25 660.96 1970.21 661.308 1970.21 661.575C1970.21 661.837 1970.25 662.074 1970.34 662.29C1970.42 662.512 1970.6 662.643 1970.85 662.689C1972.46 662.946 1973.57 663.268 1974.16 663.636C1974.75 664.004 1975.05 664.629 1975.05 665.501V698.848C1975.05 699.725 1974.75 700.335 1974.16 700.688C1973.57 701.035 1972.46 701.363 1970.85 701.67C1970.42 701.751 1970.21 702.104 1970.21 702.719C1970.21 702.981 1970.25 703.328 1970.34 703.767C1971.57 703.676 1972.87 703.601 1974.26 703.535C1975.63 703.47 1976.9 703.434 1978.04 703.434C1979.23 703.434 1980.48 703.47 1981.8 703.535C1983.11 703.601 1984.43 703.676 1985.75 703.767C1985.83 703.328 1985.87 702.981 1985.87 702.719C1985.87 702.104 1985.66 701.751 1985.24 701.67C1983.63 701.323 1982.52 700.98 1981.93 700.652C1981.33 700.325 1981.04 699.725 1981.04 698.848V665.501C1981.04 664.629 1981.33 664.004 1981.93 663.636"  />
      <path id="path135" d="M1949.52 664.128C1949.4 663.126 1949.22 662.259 1949.01 661.538C1948.8 660.822 1948.44 660.455 1947.93 660.455C1947.38 660.455 1946.36 660.525 1944.88 660.656C1943.39 660.787 1941.82 660.853 1940.17 660.853H1927.57C1926.37 660.853 1925.12 660.822 1923.8 660.752C1922.49 660.686 1921.13 660.616 1919.73 660.525C1919.64 660.958 1919.61 661.306 1919.61 661.573C1919.61 661.926 1919.63 662.173 1919.7 662.329C1919.76 662.48 1919.95 662.596 1920.24 662.687C1921.94 662.989 1923.11 663.322 1923.78 663.67C1924.43 664.023 1924.76 664.632 1924.76 665.499V698.852C1924.76 699.724 1924.35 700.329 1923.55 700.651C1922.74 700.979 1921.65 701.321 1920.24 701.669C1919.82 701.714 1919.61 702.057 1919.61 702.717C1919.61 702.979 1919.64 703.327 1919.73 703.766C1920.96 703.68 1922.3 703.599 1923.74 703.534C1925.18 703.473 1926.48 703.438 1927.62 703.438C1928.85 703.438 1930.03 703.458 1931.16 703.498C1932.28 703.544 1933.27 703.589 1934.12 703.635C1935.14 703.68 1936.09 703.72 1936.98 703.766C1937.07 703.327 1937.11 702.954 1937.11 702.652C1937.11 701.951 1936.85 701.583 1936.35 701.538C1934.77 701.321 1933.45 701.044 1932.37 700.722C1931.28 700.389 1930.74 699.789 1930.74 698.912V683.718H1940.23C1941.08 683.718 1941.69 684.156 1942.07 685.023C1942.46 685.9 1942.73 686.908 1942.9 688.042C1942.95 688.389 1943.07 688.616 1943.29 688.727C1943.5 688.838 1943.77 688.893 1944.12 688.893C1944.41 688.893 1944.73 688.848 1945.07 688.762C1944.94 687.407 1944.86 686.207 1944.81 685.159C1944.77 684.111 1944.75 683.214 1944.75 682.473C1944.75 681.556 1944.78 680.472 1944.85 679.227C1944.91 677.983 1944.98 676.879 1945.07 675.921C1944.73 675.831 1944.39 675.785 1944.05 675.785C1943.41 675.785 1943.03 676.073 1942.9 676.637C1942.69 677.821 1942.4 678.834 1942.05 679.686C1941.68 680.538 1941.08 680.966 1940.23 680.966H1930.74V663.539H1940.17C1941.44 663.539 1942.5 663.66 1943.35 663.897C1944.2 664.139 1944.93 664.522 1945.55 665.046C1946.16 665.57 1946.71 666.245 1947.2 667.077C1947.69 667.908 1948.19 668.911 1948.7 670.09C1948.87 670.483 1949.21 670.68 1949.71 670.68C1949.92 670.68 1950.14 670.645 1950.35 670.579C1950.57 670.519 1950.73 670.393 1950.86 670.221C1950.44 669.39 1950.14 668.422 1949.97 667.303C1949.8 666.19 1949.65 665.131 1949.52 664.128Z"  />
      <path id="path131" d="M1891.76 691.645C1891.1 693.565 1890.18 695.229 1888.99 696.625C1887.8 698.026 1886.38 699.109 1884.72 699.9C1883.07 700.687 1881.24 701.08 1879.25 701.08C1876.78 701.08 1874.6 700.515 1872.69 699.376C1870.78 698.242 1869.18 696.655 1867.89 694.629C1866.59 692.593 1865.6 690.194 1864.93 687.417C1864.25 684.645 1863.91 681.647 1863.91 678.411C1863.91 675.967 1864.27 673.805 1864.99 671.925C1865.71 670.045 1866.68 668.463 1867.89 667.178C1869.09 665.887 1870.5 664.9 1872.09 664.229C1873.68 663.549 1875.34 663.206 1877.09 663.206C1879.72 663.206 1882.02 663.781 1883.99 664.915C1885.96 666.049 1887.59 667.611 1888.89 669.597C1890.19 671.587 1891.15 673.921 1891.79 676.612C1892.43 679.298 1892.74 682.211 1892.74 685.356C1892.74 687.624 1892.41 689.72 1891.76 691.645ZM1893.79 666.719C1891.99 664.683 1889.71 663.07 1886.95 661.871C1884.19 660.671 1880.97 660.062 1877.27 660.062C1874.6 660.062 1872.06 660.656 1869.63 661.836C1867.21 663.01 1865.09 664.612 1863.27 666.618C1861.45 668.629 1860 670.962 1858.94 673.628C1857.88 676.289 1857.35 679.132 1857.35 682.145C1857.35 685.462 1857.85 688.475 1858.85 691.187C1859.84 693.893 1861.25 696.221 1863.05 698.162C1864.85 700.107 1867 701.604 1869.51 702.652C1872.01 703.7 1874.77 704.224 1877.78 704.224C1880.75 704.224 1883.55 703.72 1886.15 702.717C1888.77 701.715 1891.04 700.258 1892.97 698.358C1894.9 696.458 1896.41 694.145 1897.52 691.413C1898.62 688.687 1899.18 685.598 1899.18 682.145C1899.18 679.217 1898.73 676.42 1897.83 673.759C1896.95 671.093 1895.6 668.745 1893.79 666.719Z"  />
      <path id="path127" d="M1829.56 691.645C1828.91 693.565 1827.98 695.229 1826.79 696.625C1825.6 698.026 1824.18 699.109 1822.52 699.9C1820.87 700.687 1819.05 701.08 1817.05 701.08C1814.59 701.08 1812.41 700.515 1810.49 699.376C1808.59 698.242 1806.99 696.655 1805.69 694.629C1804.4 692.593 1803.41 690.194 1802.73 687.417C1802.05 684.645 1801.71 681.647 1801.71 678.411C1801.71 675.967 1802.08 673.805 1802.8 671.925C1803.52 670.045 1804.48 668.463 1805.69 667.178C1806.9 665.887 1808.3 664.9 1809.89 664.229C1811.49 663.549 1813.15 663.206 1814.89 663.206C1817.52 663.206 1819.83 663.781 1821.79 664.915C1823.77 666.049 1825.4 667.611 1826.7 669.597C1827.99 671.587 1828.96 673.921 1829.6 676.612C1830.23 679.298 1830.55 682.211 1830.55 685.356C1830.55 687.624 1830.22 689.72 1829.56 691.645ZM1831.6 666.719C1829.8 664.683 1827.51 663.07 1824.76 661.871C1822 660.671 1818.77 660.062 1815.08 660.062C1812.41 660.062 1809.86 660.656 1807.44 661.836C1805.02 663.01 1802.9 664.612 1801.08 666.618C1799.25 668.629 1797.81 670.962 1796.75 673.628C1795.69 676.289 1795.16 679.132 1795.16 682.145C1795.16 685.462 1795.65 688.475 1796.65 691.187C1797.65 693.893 1799.05 696.221 1800.86 698.162C1802.66 700.107 1804.81 701.604 1807.32 702.652C1809.82 703.7 1812.57 704.224 1815.59 704.224C1818.56 704.224 1821.35 703.72 1823.96 702.717C1826.57 701.715 1828.84 700.258 1830.77 698.358C1832.7 696.458 1834.22 694.145 1835.32 691.413C1836.43 688.687 1836.98 685.598 1836.98 682.145C1836.98 679.217 1836.53 676.42 1835.64 673.759C1834.75 671.093 1833.41 668.745 1831.6 666.719Z"  />
      <path id="path123" d="M1755.81 681.62H1752.44V663.537H1755.62C1757.36 663.537 1758.84 663.779 1760.04 664.258C1761.25 664.737 1762.23 665.392 1762.98 666.224C1763.72 667.05 1764.26 668.038 1764.6 669.172C1764.93 670.311 1765.11 671.556 1765.11 672.906C1765.11 676.137 1764.3 678.399 1762.69 679.685C1761.08 680.975 1758.78 681.62 1755.81 681.62ZM1779.62 701.869C1778.77 701.647 1777.86 701.32 1776.89 700.881C1775.9 700.443 1775.02 699.657 1774.21 698.523L1763.58 683.323C1764.98 682.799 1766.2 682.114 1767.24 681.262C1768.28 680.41 1769.13 679.478 1769.78 678.475C1770.44 677.472 1770.93 676.444 1771.25 675.396C1771.57 674.348 1771.73 673.34 1771.73 672.382C1771.73 668.844 1770.56 666.037 1768.23 663.966C1765.89 661.889 1762.44 660.851 1757.85 660.851H1749.26C1748.03 660.851 1746.73 660.821 1745.37 660.751C1744.02 660.69 1742.7 660.614 1741.43 660.524C1741.34 660.957 1741.3 661.31 1741.3 661.572C1741.3 662.273 1741.51 662.64 1741.93 662.686C1743.72 662.902 1744.92 663.225 1745.53 663.638C1746.15 664.052 1746.45 664.676 1746.45 665.503V698.85C1746.45 699.727 1746.13 700.347 1745.47 700.72C1744.81 701.088 1743.67 701.406 1742.06 701.673C1741.6 701.753 1741.36 702.101 1741.36 702.721C1741.36 702.978 1741.41 703.331 1741.49 703.769C1742.76 703.678 1744.12 703.598 1745.56 703.537C1747.01 703.472 1748.28 703.437 1749.39 703.437C1750.95 703.437 1752.56 703.472 1754.19 703.537C1755.82 703.598 1757.21 703.678 1758.36 703.769C1758.44 703.331 1758.49 702.953 1758.49 702.65C1758.49 701.995 1758.23 701.627 1757.73 701.537C1755.94 701.32 1754.61 701.038 1753.75 700.685C1752.87 700.337 1752.44 699.682 1752.44 698.724V684.306H1757.15L1767.34 699.44C1768.14 700.665 1769 701.673 1769.91 702.454C1770.83 703.24 1771.73 703.633 1772.62 703.633C1773.81 703.633 1775.1 703.668 1776.51 703.734C1777.91 703.794 1779.09 703.875 1780.07 703.961C1780.15 703.527 1780.19 703.134 1780.19 702.781C1780.19 702.257 1780 701.95 1779.62 701.869Z"  />
      <path id="path119" d="M1712.66 680.246C1711.04 681.602 1708.75 682.272 1705.78 682.272H1702.41V663.54H1705.78C1707.56 663.54 1709.05 663.797 1710.24 664.326C1711.42 664.845 1712.38 665.561 1713.1 666.453C1713.82 667.345 1714.33 668.383 1714.63 669.567C1714.93 670.742 1715.07 672.012 1715.07 673.367C1715.07 676.598 1714.27 678.891 1712.66 680.246ZM1707.94 660.849H1698.97C1697.78 660.849 1696.51 660.823 1695.18 660.753C1693.84 660.687 1692.58 660.612 1691.39 660.526C1691.31 660.874 1691.27 661.201 1691.27 661.504C1691.27 662.204 1691.48 662.597 1691.9 662.688C1693.6 662.905 1694.78 663.207 1695.43 663.6C1696.09 663.993 1696.42 664.628 1696.42 665.5V698.848C1696.42 699.725 1696.13 700.324 1695.56 700.652C1694.99 700.98 1693.85 701.322 1692.15 701.67C1691.74 701.756 1691.52 702.104 1691.52 702.718C1691.52 702.98 1691.56 703.328 1691.65 703.767C1692.88 703.676 1694.19 703.6 1695.59 703.535C1696.99 703.469 1698.25 703.439 1699.35 703.439C1701.17 703.439 1702.87 703.469 1704.44 703.535C1706.02 703.6 1707.42 703.676 1708.64 703.767C1708.73 703.328 1708.77 702.955 1708.77 702.648C1708.77 701.993 1708.52 701.625 1708.01 701.539C1706.14 701.277 1704.74 700.934 1703.81 700.521C1702.87 700.103 1702.41 699.397 1702.41 698.394V684.964H1707.94C1710.1 684.964 1712.05 684.591 1713.77 683.85C1715.49 683.104 1716.93 682.156 1718.1 680.997C1719.27 679.843 1720.15 678.538 1720.77 677.102C1721.39 675.66 1721.69 674.239 1721.69 672.838C1721.69 669.3 1720.55 666.423 1718.26 664.19C1715.97 661.967 1712.53 660.849 1707.94 660.849"  />
      <path id="path115" d="M1649.95 681.62H1646.58V663.537H1649.76C1651.5 663.537 1652.97 663.779 1654.18 664.258C1655.39 664.737 1656.37 665.392 1657.11 666.224C1657.86 667.05 1658.4 668.038 1658.74 669.172C1659.08 670.311 1659.24 671.556 1659.24 672.906C1659.24 676.137 1658.44 678.399 1656.82 679.685C1655.21 680.975 1652.92 681.62 1649.95 681.62ZM1673.76 701.869C1672.91 701.647 1672 701.32 1671.02 700.881C1670.05 700.443 1669.15 699.657 1668.35 698.523L1657.72 683.323C1659.12 682.799 1660.34 682.114 1661.38 681.262C1662.42 680.41 1663.27 679.478 1663.93 678.475C1664.58 677.472 1665.07 676.444 1665.39 675.396C1665.71 674.348 1665.87 673.34 1665.87 672.382C1665.87 668.844 1664.7 666.037 1662.37 663.966C1660.03 661.889 1656.57 660.851 1651.99 660.851H1643.4C1642.16 660.851 1640.87 660.821 1639.51 660.751C1638.15 660.69 1636.83 660.614 1635.57 660.524C1635.48 660.957 1635.44 661.31 1635.44 661.572C1635.44 662.273 1635.65 662.64 1636.08 662.686C1637.85 662.902 1639.05 663.225 1639.67 663.638C1640.28 664.052 1640.6 664.676 1640.6 665.503V698.85C1640.6 699.727 1640.26 700.347 1639.61 700.72C1638.95 701.088 1637.81 701.406 1636.2 701.673C1635.74 701.753 1635.5 702.101 1635.5 702.721C1635.5 702.978 1635.55 703.331 1635.63 703.769C1636.9 703.678 1638.26 703.598 1639.7 703.537C1641.14 703.472 1642.42 703.437 1643.52 703.437C1645.09 703.437 1646.7 703.472 1648.33 703.537C1649.96 703.598 1651.35 703.678 1652.5 703.769C1652.58 703.331 1652.63 702.953 1652.63 702.65C1652.63 701.995 1652.37 701.627 1651.86 701.537C1650.08 701.32 1648.75 701.038 1647.88 700.685C1647.01 700.337 1646.58 699.682 1646.58 698.724V684.306H1651.29L1661.48 699.44C1662.28 700.665 1663.14 701.673 1664.05 702.454C1664.96 703.24 1665.87 703.633 1666.76 703.633C1667.94 703.633 1669.24 703.668 1670.64 703.734C1672.04 703.794 1673.23 703.875 1674.21 703.961C1674.29 703.527 1674.33 703.134 1674.33 702.781C1674.33 702.257 1674.14 701.95 1673.76 701.869"  />
      <path id="path111" d="M1614.49 693.087C1613.98 693.087 1613.67 693.238 1613.54 693.546C1613.03 694.594 1612.5 695.551 1611.95 696.428C1611.39 697.3 1610.77 698.051 1610.07 698.686C1609.37 699.321 1608.56 699.825 1607.65 700.193C1606.74 700.566 1605.66 700.752 1604.44 700.752H1600.93C1598.3 700.752 1596.42 700.596 1595.27 700.294C1594.13 699.986 1593.55 699.376 1593.55 698.454V682.998H1603.48C1604.33 682.998 1604.94 683.421 1605.3 684.273C1605.65 685.124 1605.94 686.162 1606.15 687.387C1606.28 687.952 1606.68 688.239 1607.36 688.239C1607.66 688.239 1607.98 688.193 1608.32 688.108C1608.19 686.752 1608.11 685.543 1608.07 684.469C1608.02 683.401 1608.01 682.494 1608.01 681.753C1608.01 680.83 1608.03 679.762 1608.09 678.537C1608.16 677.318 1608.24 676.224 1608.32 675.267C1608.19 675.221 1608.02 675.176 1607.81 675.131C1607.6 675.09 1607.43 675.07 1607.3 675.07C1606.66 675.07 1606.28 675.352 1606.15 675.922C1605.94 677.146 1605.65 678.18 1605.3 679.031C1604.94 679.883 1604.33 680.311 1603.48 680.311H1593.55V663.539H1602.97C1604.24 663.539 1605.32 663.67 1606.19 663.932C1607.06 664.195 1607.8 664.588 1608.42 665.107C1609.03 665.636 1609.57 666.301 1610.04 667.107C1610.51 667.919 1610.99 668.886 1611.51 670.025C1611.67 670.419 1612.04 670.615 1612.58 670.615C1613.01 670.615 1613.39 670.484 1613.73 670.222C1613.26 669.436 1612.95 668.473 1612.77 667.339C1612.6 666.2 1612.46 665.132 1612.33 664.129C1612.2 663.126 1612.05 662.259 1611.85 661.539C1611.66 660.823 1611.29 660.455 1610.74 660.455C1610.27 660.455 1609.34 660.526 1607.94 660.652C1606.54 660.788 1604.88 660.853 1602.97 660.853H1590.43C1589.46 660.853 1588.35 660.833 1587.12 660.788C1585.89 660.742 1584.36 660.652 1582.54 660.526C1582.5 660.697 1582.46 660.858 1582.44 661.014C1582.42 661.171 1582.41 661.352 1582.41 661.574C1582.41 662.229 1582.62 662.597 1583.05 662.688C1584.83 663.035 1586.03 663.373 1586.65 663.701C1587.26 664.028 1587.57 664.633 1587.57 665.5V698.852C1587.57 699.724 1587.22 700.334 1586.52 700.687C1585.82 701.035 1584.66 701.367 1583.05 701.67C1582.62 701.755 1582.41 702.103 1582.41 702.718C1582.41 702.98 1582.45 703.328 1582.54 703.766C1583.81 703.68 1585.15 703.6 1586.55 703.534C1587.95 703.474 1589.27 703.438 1590.5 703.438H1604.44C1604.99 703.438 1605.65 703.459 1606.41 703.499C1607.17 703.544 1607.93 703.58 1608.67 703.6C1609.41 703.625 1610.11 703.655 1610.74 703.695C1611.37 703.741 1611.86 703.766 1612.2 703.766C1612.63 703.766 1612.98 703.393 1613.25 702.647C1613.53 701.906 1613.79 701.009 1614.05 699.961C1614.3 698.913 1614.57 697.809 1614.85 696.655C1615.12 695.501 1615.45 694.503 1615.83 693.677C1615.61 693.546 1615.4 693.41 1615.16 693.284C1614.93 693.152 1614.71 693.087 1614.49 693.087Z"  />
      <path id="path107" d="M1563.19 663.08C1563.02 662.249 1562.84 661.604 1562.65 661.145C1562.46 660.686 1562.14 660.455 1561.72 660.455C1561.39 660.455 1560.95 660.48 1560.42 660.525C1559.89 660.57 1559.3 660.616 1558.67 660.656C1558.03 660.696 1557.39 660.742 1556.76 660.787C1556.12 660.833 1555.54 660.853 1555.04 660.853H1533.78C1533.22 660.853 1532.63 660.833 1532 660.787C1531.36 660.742 1530.73 660.696 1530.11 660.656C1529.5 660.616 1528.92 660.57 1528.37 660.525C1527.81 660.48 1527.39 660.455 1527.09 660.455C1526.67 660.455 1526.36 660.676 1526.17 661.11C1525.98 661.548 1525.8 662.173 1525.63 662.979C1525.46 663.791 1525.27 664.804 1525.06 666.028C1524.84 667.248 1524.52 668.644 1524.1 670.221C1524.44 670.483 1524.84 670.615 1525.31 670.615C1525.48 670.615 1525.66 670.569 1525.85 670.483C1526.04 670.393 1526.18 670.242 1526.27 670.025C1526.77 668.931 1527.26 667.974 1527.73 667.142C1528.2 666.316 1528.75 665.635 1529.39 665.106C1530.02 664.587 1530.78 664.194 1531.65 663.932C1532.51 663.67 1533.59 663.539 1534.86 663.539H1541.42V698.524C1541.42 699.527 1540.99 700.228 1540.14 700.621C1539.29 701.009 1537.92 701.341 1536.01 701.604C1535.58 701.689 1535.37 702.037 1535.37 702.652C1535.37 702.954 1535.41 703.327 1535.5 703.766C1536.85 703.68 1538.31 703.599 1539.85 703.534C1541.41 703.473 1542.92 703.438 1544.41 703.438C1545.94 703.438 1547.45 703.473 1548.96 703.534C1550.47 703.599 1551.9 703.68 1553.26 703.766C1553.34 703.327 1553.38 702.954 1553.38 702.652C1553.38 701.951 1553.15 701.604 1552.68 701.604C1550.77 701.387 1549.41 701.069 1548.61 700.651C1547.8 700.238 1547.4 699.527 1547.4 698.524V663.539H1553.96C1555.23 663.539 1556.3 663.67 1557.17 663.932C1558.04 664.194 1558.79 664.587 1559.4 665.106C1560.01 665.635 1560.56 666.316 1561.02 667.142C1561.49 667.974 1561.95 668.931 1562.42 670.025C1562.51 670.242 1562.66 670.393 1562.87 670.483C1563.09 670.569 1563.28 670.615 1563.44 670.615C1563.7 670.615 1563.92 670.569 1564.11 670.483C1564.3 670.393 1564.51 670.312 1564.72 670.221C1564.25 668.735 1563.92 667.384 1563.73 666.154C1563.54 664.935 1563.35 663.907 1563.19 663.08Z"  />
      <path id="path103" d="M1484.5 685.159L1490.68 669.107L1496.6 685.159H1484.5ZM1512.9 701.538C1512.05 701.407 1511.18 701.17 1510.29 700.817C1509.39 700.469 1508.83 699.985 1508.57 699.376L1493.17 660.197C1492.82 660.106 1492.56 660.066 1492.4 660.066C1491.89 660.066 1491.49 660.439 1491.19 661.18L1475.85 699.179C1475.55 699.879 1475.07 700.388 1474.41 700.721C1473.76 701.044 1472.77 701.321 1471.45 701.538C1471.12 701.583 1470.9 701.714 1470.79 701.931C1470.68 702.147 1470.63 702.414 1470.63 702.717C1470.63 703.07 1470.67 703.417 1470.75 703.765C1471.73 703.634 1472.66 703.543 1473.56 703.503C1474.45 703.458 1475.32 703.437 1476.17 703.437C1477.4 703.437 1478.65 703.473 1479.92 703.533C1481.19 703.599 1482.4 703.679 1483.55 703.765C1483.63 703.327 1483.68 702.979 1483.68 702.717C1483.68 702.455 1483.62 702.228 1483.52 702.031C1483.41 701.835 1483.21 701.714 1482.92 701.669C1480.32 701.275 1479.03 700.62 1479.03 699.703C1479.03 699.35 1479.14 698.912 1479.35 698.393L1483.42 687.845H1497.62L1501.63 698.655C1501.8 699.048 1501.89 699.376 1501.89 699.638C1501.89 700.202 1501.54 700.63 1500.87 700.913C1500.18 701.2 1499.3 701.447 1498.19 701.669C1498.07 701.669 1497.93 701.744 1497.78 701.895C1497.63 702.052 1497.55 702.324 1497.55 702.717C1497.55 702.979 1497.6 703.327 1497.68 703.765C1498.91 703.679 1500.3 703.599 1501.82 703.533C1503.35 703.473 1504.71 703.437 1505.89 703.437C1507.04 703.437 1508.27 703.473 1509.59 703.533C1510.9 703.599 1512.24 703.679 1513.6 703.765C1513.68 703.327 1513.73 702.979 1513.73 702.717C1513.73 702.324 1513.65 702.052 1513.5 701.895C1513.36 701.744 1513.16 701.628 1512.9 701.538Z"  />
      <path id="path99" d="M1462.42 660.526C1461.74 660.617 1460.82 660.687 1459.65 660.753C1458.48 660.823 1457.39 660.849 1456.37 660.849C1455.43 660.849 1454.36 660.823 1453.15 660.753C1451.94 660.687 1450.79 660.617 1449.68 660.526C1449.6 660.874 1449.56 661.227 1449.56 661.574C1449.56 662.275 1449.79 662.643 1450.26 662.688C1451.61 662.865 1452.6 663.101 1453.22 663.404C1453.83 663.716 1454.15 664.175 1454.15 664.785C1454.15 664.956 1454.12 665.153 1454.08 665.374C1454.03 665.591 1453.97 665.833 1453.89 666.09L1444.85 692.695L1434.09 660.919C1433.92 660.35 1433.62 660.062 1433.2 660.062C1433.03 660.062 1432.82 660.108 1432.56 660.199L1421.61 692.695L1412 665.636C1411.87 665.374 1411.81 665.107 1411.81 664.845C1411.81 664.195 1412.15 663.701 1412.83 663.374C1413.51 663.046 1414.46 662.819 1415.69 662.688C1416.16 662.597 1416.4 662.23 1416.4 661.574C1416.4 661.307 1416.35 660.96 1416.26 660.526C1414.95 660.617 1413.54 660.687 1412.03 660.753C1410.53 660.823 1409.24 660.849 1408.18 660.849C1407.67 660.849 1407.09 660.839 1406.43 660.823C1405.78 660.798 1405.09 660.778 1404.39 660.753C1403.69 660.733 1402.99 660.697 1402.29 660.652C1401.59 660.617 1400.94 660.571 1400.35 660.526C1400.27 660.96 1400.22 661.287 1400.22 661.504C1400.22 662.204 1400.46 662.623 1400.92 662.749C1402.45 662.97 1403.5 663.232 1404.08 663.54C1404.64 663.842 1405.04 664.301 1405.25 664.916L1418.94 703.046C1419.19 703.832 1419.57 704.225 1420.08 704.225C1420.34 704.225 1420.55 704.18 1420.72 704.094L1431.54 672.183L1442.17 703.046C1442.43 703.832 1442.81 704.225 1443.32 704.225C1443.53 704.225 1443.76 704.18 1444.02 704.094L1457.45 665.243C1457.75 664.412 1458.23 663.832 1458.88 663.505C1459.54 663.177 1460.51 662.93 1461.78 662.749C1462.29 662.668 1462.54 662.275 1462.54 661.574C1462.54 661.443 1462.52 661.267 1462.48 661.05C1462.44 660.834 1462.42 660.652 1462.42 660.526Z"  />
    </g>
    <g id="&#38;">
      <path id="path95" d="M1333.86 699.406C1332.31 700.132 1330.64 700.49 1328.86 700.49C1328.14 700.49 1327.33 700.369 1326.44 700.132C1325.55 699.89 1324.71 699.477 1323.93 698.882C1323.14 698.293 1322.49 697.486 1321.95 696.458C1321.42 695.435 1321.16 694.135 1321.16 692.563C1321.16 690.723 1321.56 688.959 1322.37 687.256C1323.17 685.552 1324.32 684.045 1325.8 682.73C1328.52 685.618 1330.94 688.107 1333.06 690.204C1335.18 692.3 1337.09 694.11 1338.79 695.642C1337.05 697.431 1335.4 698.686 1333.86 699.406ZM1323.9 668.584C1323.9 667.319 1324.25 666.326 1324.98 665.6C1325.7 664.879 1326.61 664.522 1327.72 664.522C1329.46 664.522 1330.75 665.086 1331.6 666.225C1332.45 667.364 1332.87 668.977 1332.87 671.073C1332.87 672.212 1332.62 673.432 1332.11 674.737C1331.6 676.052 1330.73 677.272 1329.49 678.411C1327.29 676.183 1325.8 674.314 1325.04 672.812C1324.28 671.3 1323.9 669.894 1323.9 668.584ZM1356.65 701.866C1356.29 701.78 1355.94 701.725 1355.59 701.699C1355.26 701.679 1355.05 701.644 1354.96 701.604C1354.5 701.473 1353.96 701.231 1353.37 700.883C1352.77 700.535 1352.04 700.031 1351.17 699.376C1350.3 698.721 1349.27 697.879 1348.09 696.851C1346.9 695.828 1345.52 694.548 1343.95 693.016C1345.22 691.101 1346.39 689.1 1347.45 687.024C1348.51 684.953 1349.51 682.891 1350.44 680.83C1350.74 680.18 1351.02 679.666 1351.3 679.298C1351.57 678.925 1351.85 678.638 1352.13 678.441C1352.41 678.25 1352.73 678.094 1353.12 677.983C1353.5 677.877 1353.98 677.756 1354.57 677.625C1355.13 677.489 1355.4 677.186 1355.4 676.708C1355.4 676.622 1355.38 676.456 1355.34 676.214C1355.3 675.977 1355.26 675.77 1355.22 675.589C1353.82 675.725 1352.14 675.785 1350.19 675.785C1349.17 675.785 1348.17 675.78 1347.2 675.76C1346.22 675.735 1345.33 675.68 1344.52 675.589C1344.43 675.725 1344.38 675.921 1344.37 676.183C1344.34 676.441 1344.33 676.622 1344.33 676.708C1344.33 677.232 1344.6 677.514 1345.16 677.559C1346.26 677.776 1346.98 678.008 1347.32 678.25C1347.66 678.487 1347.83 678.849 1347.83 679.328C1347.83 679.807 1347.69 680.497 1347.42 681.395C1347.14 682.292 1346.76 683.269 1346.27 684.343C1345.79 685.411 1345.2 686.555 1344.52 687.775C1343.84 689.004 1343.1 690.184 1342.29 691.318C1340.81 689.871 1339.13 688.203 1337.26 686.303C1335.39 684.403 1333.32 682.256 1331.03 679.852C1333.32 678.28 1334.92 676.728 1335.83 675.201C1336.75 673.674 1337.2 672.142 1337.2 670.615C1337.2 669.345 1336.98 668.18 1336.53 667.107C1336.08 666.039 1335.46 665.121 1334.65 664.355C1333.85 663.594 1332.89 662.99 1331.79 662.556C1330.69 662.123 1329.47 661.901 1328.16 661.901C1325.44 661.901 1323.23 662.632 1321.51 664.093C1319.79 665.56 1318.93 667.49 1318.93 669.894C1318.93 670.811 1319 671.693 1319.15 672.545C1319.3 673.397 1319.59 674.273 1320.01 675.165C1320.44 676.063 1320.99 676.995 1321.67 677.952C1322.34 678.915 1323.24 679.963 1324.34 681.097C1321.62 682.846 1319.52 684.746 1318.04 686.797C1316.56 688.848 1315.81 691.116 1315.81 693.611C1315.81 695.445 1316.1 697.038 1316.67 698.393C1317.24 699.744 1318.04 700.848 1319.06 701.699C1320.08 702.551 1321.3 703.186 1322.72 703.599C1324.14 704.018 1325.68 704.224 1327.33 704.224C1330.01 704.224 1332.44 703.589 1334.62 702.324C1336.81 701.054 1338.81 699.376 1340.64 697.28C1342.42 698.852 1343.96 700.087 1345.25 700.979C1346.55 701.876 1347.66 702.531 1348.6 702.944C1349.53 703.363 1350.33 703.625 1351.01 703.73C1351.7 703.841 1352.33 703.897 1352.92 703.897C1355 703.897 1356.66 703.957 1357.89 704.093C1357.97 703.877 1358.03 703.645 1358.05 703.403C1358.07 703.166 1358.08 703 1358.08 702.914C1358.08 702.652 1357.93 702.435 1357.63 702.254C1357.34 702.082 1357.01 701.951 1356.65 701.866"  />
    </g>
    <g id="restoration">
      <path id="path91" d="M1264.63 660.753C1263.61 660.823 1262.64 660.853 1261.7 660.853C1260.72 660.853 1259.69 660.823 1258.58 660.753C1257.48 660.687 1256.4 660.616 1255.34 660.526C1255.25 660.959 1255.21 661.307 1255.21 661.574C1255.21 662.275 1255.44 662.642 1255.91 662.688C1257.52 662.904 1258.67 663.207 1259.35 663.6C1260.03 663.998 1260.37 664.673 1260.37 665.636V693.016L1237.51 661.64C1237.26 661.287 1236.93 661.07 1236.53 660.984C1236.12 660.894 1235.3 660.853 1234.08 660.853C1233.48 660.853 1232.8 660.843 1232.04 660.823C1231.27 660.798 1230.55 660.768 1229.87 660.722C1229.11 660.677 1228.3 660.616 1227.46 660.526C1227.41 660.697 1227.39 660.853 1227.39 660.984C1227.35 661.156 1227.33 661.352 1227.33 661.574C1227.33 662.229 1227.56 662.597 1228.02 662.688C1229.56 662.904 1230.56 663.197 1231.05 663.575C1231.54 663.943 1231.78 664.477 1231.78 665.177V698.852C1231.78 699.724 1231.51 700.334 1230.99 700.687C1230.46 701.035 1229.43 701.367 1227.9 701.67C1227.43 701.755 1227.2 702.103 1227.2 702.718C1227.2 702.98 1227.24 703.328 1227.33 703.766C1228.26 703.68 1229.3 703.6 1230.45 703.534C1231.59 703.474 1232.59 703.438 1233.44 703.438C1234.37 703.438 1235.38 703.474 1236.46 703.534C1237.55 703.6 1238.62 703.68 1239.68 703.766C1239.76 703.328 1239.81 702.98 1239.81 702.718C1239.81 702.103 1239.59 701.755 1239.17 701.67C1237.47 701.367 1236.32 701.035 1235.73 700.687C1235.14 700.334 1234.84 699.724 1234.84 698.852V667.995L1260.68 703.045C1261.02 703.524 1261.32 703.842 1261.58 703.993C1261.83 704.144 1262.11 704.225 1262.4 704.225C1262.53 704.225 1262.7 704.21 1262.91 704.189C1263.12 704.169 1263.28 704.134 1263.36 704.094V665.5C1263.36 664.633 1263.62 663.998 1264.15 663.6C1264.69 663.207 1265.67 662.904 1267.11 662.688C1267.54 662.642 1267.75 662.275 1267.75 661.574C1267.75 661.307 1267.71 660.959 1267.62 660.526C1266.64 660.616 1265.65 660.687 1264.63 660.753Z"  />
      <path id="path87" d="M1199.6 691.645C1198.94 693.565 1198.02 695.228 1196.83 696.624C1195.64 698.025 1194.22 699.109 1192.56 699.9C1190.91 700.686 1189.09 701.079 1187.09 701.079C1184.63 701.079 1182.45 700.515 1180.53 699.376C1178.63 698.242 1177.03 696.655 1175.73 694.629C1174.44 692.593 1173.45 690.194 1172.77 687.417C1172.09 684.645 1171.75 681.646 1171.75 678.411C1171.75 675.967 1172.12 673.805 1172.83 671.925C1173.56 670.045 1174.52 668.463 1175.73 667.177C1176.94 665.887 1178.34 664.9 1179.93 664.229C1181.53 663.549 1183.19 663.206 1184.93 663.206C1187.56 663.206 1189.87 663.781 1191.83 664.915C1193.81 666.049 1195.44 667.611 1196.74 669.596C1198.03 671.587 1199 673.921 1199.64 676.612C1200.27 679.298 1200.59 682.211 1200.59 685.356C1200.59 687.623 1200.26 689.72 1199.6 691.645ZM1201.64 666.719C1199.84 664.683 1197.55 663.07 1194.8 661.871C1192.04 660.671 1188.81 660.061 1185.12 660.061C1182.45 660.061 1179.9 660.656 1177.48 661.835C1175.06 663.01 1172.94 664.612 1171.12 666.618C1169.29 668.629 1167.85 670.962 1166.79 673.628C1165.72 676.289 1165.2 679.132 1165.2 682.145C1165.2 685.461 1165.69 688.475 1166.69 691.187C1167.69 693.893 1169.09 696.221 1170.9 698.161C1172.7 700.107 1174.85 701.604 1177.35 702.652C1179.86 703.7 1182.61 704.224 1185.63 704.224C1188.6 704.224 1191.39 703.72 1194 702.717C1196.61 701.714 1198.88 700.258 1200.81 698.358C1202.74 696.458 1204.26 694.145 1205.36 691.413C1206.47 688.687 1207.02 685.597 1207.02 682.145C1207.02 679.217 1206.57 676.42 1205.68 673.759C1204.79 671.093 1203.44 668.745 1201.64 666.719Z"  />
      <path id="path83" d="M1140.88 663.636C1141.47 663.268 1142.58 662.946 1144.19 662.689C1144.61 662.598 1144.83 662.23 1144.83 661.575C1144.83 661.308 1144.79 660.96 1144.7 660.526C1143.38 660.612 1142.03 660.688 1140.66 660.753C1139.28 660.819 1138.06 660.849 1136.99 660.849C1135.89 660.849 1134.65 660.819 1133.27 660.753C1131.89 660.688 1130.57 660.612 1129.3 660.526C1129.21 660.96 1129.16 661.308 1129.16 661.575C1129.16 661.837 1129.21 662.074 1129.3 662.29C1129.37 662.512 1129.55 662.643 1129.8 662.689C1131.41 662.946 1132.52 663.268 1133.11 663.636C1133.71 664.004 1134.01 664.629 1134.01 665.501V698.848C1134.01 699.725 1133.71 700.335 1133.11 700.688C1132.52 701.036 1131.41 701.363 1129.8 701.671C1129.37 701.751 1129.16 702.104 1129.16 702.719C1129.16 702.981 1129.21 703.329 1129.3 703.767C1130.53 703.676 1131.83 703.601 1133.21 703.535C1134.59 703.47 1135.85 703.434 1136.99 703.434C1138.18 703.434 1139.44 703.47 1140.76 703.535C1142.07 703.601 1143.38 703.676 1144.7 703.767C1144.79 703.329 1144.83 702.981 1144.83 702.719C1144.83 702.104 1144.61 701.751 1144.19 701.671C1142.58 701.323 1141.47 700.98 1140.88 700.653C1140.29 700.325 1139.99 699.725 1139.99 698.848V665.501C1139.99 664.629 1140.29 664.004 1140.88 663.636"  />
      <path id="path79" d="M1109.94 663.08C1109.78 662.249 1109.6 661.604 1109.4 661.145C1109.21 660.686 1108.9 660.455 1108.48 660.455C1108.14 660.455 1107.7 660.48 1107.18 660.525C1106.64 660.57 1106.06 660.616 1105.42 660.656L1103.52 660.787C1102.88 660.833 1102.3 660.853 1101.79 660.853H1080.53C1079.98 660.853 1079.39 660.833 1078.75 660.787C1078.11 660.742 1077.49 660.696 1076.87 660.656C1076.26 660.616 1075.67 660.57 1075.13 660.525C1074.57 660.48 1074.14 660.455 1073.85 660.455C1073.43 660.455 1073.11 660.676 1072.92 661.11C1072.74 661.548 1072.56 662.173 1072.38 662.979C1072.22 663.791 1072.03 664.804 1071.81 666.028C1071.6 667.248 1071.28 668.644 1070.86 670.221C1071.2 670.483 1071.6 670.615 1072.07 670.615C1072.24 670.615 1072.42 670.569 1072.61 670.483C1072.8 670.393 1072.94 670.242 1073.02 670.025C1073.53 668.931 1074.02 667.974 1074.49 667.142C1074.95 666.316 1075.51 665.635 1076.14 665.106C1076.78 664.587 1077.53 664.194 1078.4 663.932C1079.27 663.67 1080.34 663.539 1081.62 663.539H1088.18V698.524C1088.18 699.527 1087.75 700.228 1086.9 700.621C1086.05 701.009 1084.68 701.341 1082.76 701.603C1082.33 701.689 1082.12 702.037 1082.12 702.652C1082.12 702.954 1082.17 703.327 1082.26 703.766C1083.61 703.68 1085.06 703.599 1086.61 703.534C1088.16 703.473 1089.68 703.438 1091.16 703.438C1092.7 703.438 1094.21 703.473 1095.72 703.534C1097.22 703.599 1098.66 703.68 1100.02 703.766C1100.1 703.327 1100.14 702.954 1100.14 702.652C1100.14 701.951 1099.9 701.603 1099.44 701.603C1097.53 701.387 1096.17 701.069 1095.36 700.651C1094.56 700.238 1094.16 699.527 1094.16 698.524V663.539H1100.71C1101.99 663.539 1103.06 663.67 1103.92 663.932C1104.8 664.194 1105.55 664.587 1106.16 665.106C1106.77 665.635 1107.31 666.316 1107.78 667.142C1108.24 667.974 1108.71 668.931 1109.18 670.025C1109.26 670.242 1109.41 670.393 1109.63 670.483C1109.84 670.569 1110.03 670.615 1110.2 670.615C1110.45 670.615 1110.67 670.569 1110.86 670.483C1111.06 670.393 1111.26 670.312 1111.47 670.221C1111.01 668.735 1110.67 667.384 1110.49 666.154C1110.3 664.935 1110.11 663.907 1109.94 663.08Z"  />
      <path id="path75" d="M1031.26 685.159L1037.44 669.107L1043.36 685.159H1031.26ZM1059.66 701.538C1058.8 701.407 1057.94 701.17 1057.05 700.817C1056.15 700.469 1055.58 699.985 1055.33 699.376L1039.92 660.197C1039.58 660.106 1039.32 660.066 1039.16 660.066C1038.65 660.066 1038.25 660.439 1037.95 661.18L1022.6 699.179C1022.31 699.879 1021.83 700.388 1021.17 700.721C1020.52 701.044 1019.53 701.321 1018.21 701.538C1017.88 701.583 1017.65 701.714 1017.54 701.931C1017.44 702.147 1017.39 702.414 1017.39 702.717C1017.39 703.07 1017.43 703.417 1017.51 703.765C1018.49 703.634 1019.42 703.543 1020.31 703.503C1021.21 703.458 1022.07 703.437 1022.92 703.437C1024.15 703.437 1025.41 703.473 1026.68 703.533C1027.95 703.599 1029.16 703.679 1030.31 703.765C1030.39 703.327 1030.44 702.979 1030.44 702.717C1030.44 702.455 1030.38 702.228 1030.27 702.031C1030.17 701.835 1029.97 701.714 1029.67 701.669C1027.08 701.275 1025.79 700.62 1025.79 699.703C1025.79 699.35 1025.89 698.912 1026.11 698.393L1030.18 687.845H1044.38L1048.39 698.655C1048.55 699.048 1048.64 699.376 1048.64 699.638C1048.64 700.202 1048.3 700.63 1047.62 700.913C1046.94 701.2 1046.06 701.447 1044.95 701.669C1044.82 701.669 1044.68 701.744 1044.53 701.895C1044.39 702.052 1044.31 702.324 1044.31 702.717C1044.31 702.979 1044.36 703.327 1044.44 703.765C1045.67 703.679 1047.05 703.599 1048.58 703.533C1050.11 703.473 1051.46 703.437 1052.65 703.437C1053.8 703.437 1055.03 703.473 1056.35 703.533C1057.66 703.599 1058.99 703.679 1060.35 703.765C1060.44 703.327 1060.48 702.979 1060.48 702.717C1060.48 702.324 1060.4 702.052 1060.26 701.895C1060.11 701.744 1059.91 701.628 1059.66 701.538"  />
      <path id="path71" d="M978.681 681.62H975.307V663.537H978.49C980.229 663.537 981.703 663.779 982.912 664.258C984.122 664.737 985.101 665.392 985.84 666.224C986.585 667.05 987.128 668.038 987.466 669.172C987.804 670.311 987.97 671.556 987.97 672.906C987.97 676.137 987.167 678.399 985.551 679.685C983.94 680.975 981.649 681.62 978.681 681.62ZM1002.48 701.869C1001.64 701.647 1000.73 701.32 999.752 700.881C998.778 700.443 997.882 699.657 997.079 698.523L986.448 683.323C987.848 682.799 989.067 682.114 990.105 681.262C991.148 680.41 991.996 679.478 992.657 678.475C993.308 677.472 993.798 676.444 994.116 675.396C994.434 674.348 994.596 673.34 994.596 672.382C994.596 668.844 993.43 666.037 991.095 663.966C988.759 661.889 985.302 660.851 980.718 660.851H972.124C970.89 660.851 969.598 660.821 968.241 660.75C966.88 660.69 965.563 660.614 964.294 660.524C964.206 660.957 964.167 661.31 964.167 661.572C964.167 662.272 964.378 662.64 964.804 662.686C966.581 662.902 967.781 663.225 968.398 663.638C969.01 664.051 969.323 664.676 969.323 665.503V698.85C969.323 699.727 968.99 700.347 968.339 700.72C967.678 701.088 966.542 701.406 964.926 701.673C964.466 701.753 964.231 702.101 964.231 702.721C964.231 702.978 964.275 703.331 964.358 703.769C965.631 703.678 966.988 703.598 968.432 703.537C969.872 703.472 971.145 703.437 972.252 703.437C973.819 703.437 975.425 703.472 977.055 703.537C978.691 703.598 980.082 703.678 981.228 703.769C981.311 703.331 981.355 702.953 981.355 702.65C981.355 701.995 981.1 701.627 980.591 701.537C978.804 701.32 977.481 701.038 976.61 700.685C975.738 700.337 975.307 699.682 975.307 698.724V684.306H980.013L990.203 699.44C991.011 700.665 991.863 701.673 992.779 702.454C993.69 703.24 994.596 703.633 995.487 703.633C996.672 703.633 997.965 703.668 999.37 703.734C1000.77 703.794 1001.96 703.875 1002.94 703.961C1003.02 703.527 1003.06 703.134 1003.06 702.781C1003.06 702.257 1002.87 701.95 1002.48 701.869"  />
      <path id="path67" d="M936.317 691.645C935.656 693.565 934.736 695.228 933.55 696.624C932.356 698.025 930.936 699.109 929.28 699.9C927.63 700.686 925.804 701.079 923.806 701.079C921.343 701.079 919.159 700.515 917.249 699.376C915.344 698.242 913.743 696.655 912.445 694.629C911.148 692.593 910.163 690.194 909.488 687.417C908.807 684.645 908.469 681.646 908.469 678.411C908.469 675.967 908.827 673.805 909.546 671.925C910.271 670.045 911.236 668.463 912.445 667.177C913.655 665.887 915.055 664.9 916.647 664.229C918.238 663.549 919.903 663.206 921.646 663.206C924.276 663.206 926.577 663.781 928.551 664.915C930.524 666.049 932.155 667.611 933.453 669.596C934.745 671.587 935.71 673.921 936.351 676.612C936.988 679.298 937.301 682.211 937.301 685.356C937.301 687.623 936.973 689.72 936.317 691.645ZM938.354 666.719C936.552 664.683 934.27 663.07 931.513 661.871C928.752 660.671 925.53 660.061 921.832 660.061C919.159 660.061 916.617 660.656 914.193 661.835C911.774 663.01 909.654 664.612 907.832 666.618C906.006 668.629 904.561 670.962 903.504 673.628C902.441 676.289 901.912 679.132 901.912 682.145C901.912 685.461 902.407 688.475 903.406 691.187C904.4 693.893 905.805 696.221 907.607 698.161C909.409 700.107 911.564 701.604 914.066 702.652C916.573 703.7 919.33 704.224 922.342 704.224C925.314 704.224 928.105 703.72 930.71 702.717C933.325 701.714 935.597 700.258 937.527 698.358C939.461 696.458 940.974 694.145 942.081 691.413C943.178 688.687 943.736 685.597 943.736 682.145C943.736 679.217 943.29 676.42 942.394 673.759C941.508 671.093 940.156 668.745 938.354 666.719Z"  />
      <path id="path63" d="M884.021 663.08C883.855 662.249 883.673 661.604 883.482 661.145C883.291 660.686 882.983 660.455 882.557 660.455C882.219 660.455 881.783 660.48 881.254 660.525C880.721 660.57 880.138 660.616 879.501 660.656L877.596 660.787C876.96 660.833 876.382 660.853 875.873 660.853H854.611C854.062 660.853 853.47 660.833 852.828 660.787C852.192 660.742 851.565 660.696 850.953 660.656C850.336 660.616 849.753 660.57 849.205 660.525C848.646 660.48 848.22 660.455 847.927 660.455C847.506 660.455 847.192 660.676 847.001 661.11C846.815 661.548 846.634 662.173 846.462 662.979C846.296 663.791 846.105 664.804 845.89 666.028C845.679 667.248 845.356 668.644 844.94 670.221C845.277 670.483 845.679 670.615 846.149 670.615C846.316 670.615 846.497 670.569 846.688 670.483C846.879 670.393 847.016 670.242 847.099 670.025C847.608 668.931 848.098 667.974 848.568 667.142C849.028 666.316 849.587 665.635 850.223 665.106C850.86 664.587 851.609 664.194 852.481 663.932C853.347 663.67 854.42 663.539 855.698 663.539H862.255V698.524C862.255 699.527 861.829 700.228 860.977 700.621C860.13 701.009 858.753 701.341 856.839 701.603C856.413 701.689 856.202 702.037 856.202 702.652C856.202 702.954 856.246 703.327 856.334 703.766C857.691 703.68 859.14 703.599 860.693 703.534C862.24 703.473 863.758 703.438 865.242 703.438C866.774 703.438 868.288 703.473 869.796 703.534C871.299 703.599 872.734 703.68 874.095 703.766C874.174 703.327 874.218 702.954 874.218 702.652C874.218 701.951 873.983 701.603 873.517 701.603C871.613 701.387 870.246 701.069 869.443 700.651C868.635 700.238 868.234 699.527 868.234 698.524V663.539H874.791C876.064 663.539 877.136 663.67 878.003 663.932C878.875 664.194 879.624 664.587 880.236 665.106C880.853 665.635 881.391 666.316 881.862 667.142C882.322 667.974 882.792 668.931 883.262 670.025C883.34 670.242 883.492 670.393 883.708 670.483C883.918 670.569 884.109 670.615 884.281 670.615C884.53 670.615 884.751 670.569 884.942 670.483C885.138 670.393 885.338 670.312 885.549 670.221C885.084 668.735 884.751 667.384 884.565 666.154C884.374 664.935 884.192 663.907 884.021 663.08Z"  />
      <path id="path59" d="M815.208 678.411C811.942 677.055 809.469 675.725 807.789 674.415C806.119 673.104 805.282 671.421 805.282 669.37C805.282 668.412 805.483 667.535 805.884 666.749C806.286 665.963 806.829 665.293 807.51 664.748C808.181 664.204 808.984 663.791 809.895 663.504C810.81 663.221 811.77 663.08 812.789 663.08C815.423 663.08 817.504 663.645 819.027 664.784C820.56 665.918 821.872 667.732 822.974 670.222C823.101 670.484 823.292 670.725 823.547 670.942C823.802 671.164 824.208 671.27 824.757 671.27C824.967 671.27 825.29 671.224 825.716 671.139C825.462 669.828 825.256 668.422 825.104 666.915C824.957 665.404 824.845 663.998 824.757 662.687C822.465 661.77 820.408 661.11 818.582 660.722C816.755 660.329 814.85 660.132 812.857 660.132C810.943 660.132 809.224 660.44 807.701 661.049C806.168 661.664 804.866 662.491 803.783 663.539C802.701 664.587 801.869 665.822 801.301 667.238C800.728 668.659 800.439 670.176 800.439 671.794C800.439 673.628 800.728 675.211 801.301 676.541C801.869 677.877 802.687 679.046 803.749 680.049C804.812 681.052 806.085 681.939 807.569 682.705C809.052 683.466 810.712 684.197 812.534 684.897C815.335 685.945 817.49 687.125 818.993 688.435C820.501 689.745 821.255 691.534 821.255 693.807C821.255 694.81 821.084 695.747 820.746 696.624C820.408 697.496 819.899 698.282 819.218 698.983C818.543 699.683 817.695 700.228 816.677 700.621C815.658 701.009 814.468 701.205 813.107 701.205C810.095 701.205 807.755 700.47 806.075 698.983C804.396 697.496 803.029 695.183 801.967 692.038C801.756 691.514 801.511 691.131 801.232 690.894C800.963 690.652 800.571 690.531 800.057 690.531C799.631 690.531 799.273 690.597 798.98 690.723C799.318 692.431 799.611 694.135 799.866 695.838C800.121 697.542 800.312 699.305 800.439 701.145C801.928 702.057 803.739 702.803 805.884 703.372C808.024 703.937 810.414 704.224 813.048 704.224C815.546 704.224 817.695 703.897 819.473 703.241C821.255 702.586 822.71 701.679 823.836 700.525C824.957 699.366 825.785 698.01 826.319 696.458C826.848 694.906 827.117 693.238 827.117 691.449C827.117 688.475 826.147 685.976 824.218 683.95C822.284 681.914 819.282 680.069 815.208 678.411Z"  />
      <path id="path55" d="M777.587 693.087C777.078 693.087 776.76 693.238 776.633 693.546C776.123 694.594 775.594 695.551 775.036 696.428C774.488 697.3 773.861 698.051 773.166 698.686C772.46 699.321 771.657 699.825 770.747 700.193C769.831 700.566 768.758 700.752 767.529 700.752H764.023C761.394 700.752 759.508 700.596 758.363 700.294C757.217 699.986 756.644 699.377 756.644 698.454V682.998H766.575C767.422 682.998 768.029 683.421 768.386 684.273C768.749 685.124 769.033 686.162 769.248 687.387C769.375 687.952 769.777 688.239 770.458 688.239C770.751 688.239 771.07 688.193 771.413 688.108C771.285 686.752 771.197 685.543 771.158 684.469C771.114 683.401 771.094 682.494 771.094 681.753C771.094 680.83 771.129 679.762 771.187 678.537C771.251 677.318 771.329 676.224 771.413 675.267C771.285 675.221 771.114 675.176 770.903 675.131C770.693 675.09 770.521 675.07 770.394 675.07C769.753 675.07 769.375 675.352 769.248 675.922C769.033 677.146 768.749 678.18 768.386 679.031C768.029 679.883 767.422 680.311 766.575 680.311H756.644V663.539H766.06C767.338 663.539 768.411 663.67 769.282 663.932C770.144 664.194 770.893 664.588 771.51 665.107C772.123 665.636 772.661 666.301 773.131 667.107C773.601 667.919 774.086 668.886 774.595 670.025C774.767 670.418 775.124 670.615 775.673 670.615C776.099 670.615 776.481 670.484 776.824 670.222C776.353 669.436 776.04 668.473 775.864 667.339C775.697 666.2 775.55 665.132 775.423 664.129C775.296 663.126 775.134 662.259 774.943 661.539C774.752 660.823 774.385 660.455 773.827 660.455C773.366 660.455 772.431 660.526 771.031 660.652C769.63 660.788 767.975 660.853 766.06 660.853H753.525C752.55 660.853 751.443 660.833 750.214 660.788C748.98 660.742 747.457 660.652 745.631 660.526C745.587 660.697 745.557 660.858 745.533 661.014C745.513 661.171 745.504 661.352 745.504 661.574C745.504 662.229 745.714 662.597 746.14 662.688C747.918 663.035 749.122 663.373 749.739 663.701C750.351 664.028 750.66 664.633 750.66 665.5V698.852C750.66 699.724 750.312 700.334 749.607 700.687C748.912 701.035 747.751 701.367 746.14 701.67C745.714 701.755 745.504 702.103 745.504 702.718C745.504 702.98 745.543 703.328 745.631 703.766C746.899 703.68 748.241 703.6 749.641 703.534C751.042 703.474 752.359 703.439 753.588 703.439H767.529C768.083 703.439 768.734 703.459 769.503 703.499C770.267 703.544 771.016 703.58 771.765 703.6C772.505 703.625 773.195 703.655 773.827 703.696C774.468 703.741 774.953 703.766 775.296 703.766C775.717 703.766 776.065 703.393 776.344 702.647C776.623 701.906 776.882 701.009 777.142 699.961C777.396 698.913 777.661 697.809 777.935 696.655C778.214 695.501 778.542 694.503 778.919 693.677C778.709 693.546 778.488 693.41 778.258 693.284C778.023 693.153 777.798 693.087 777.587 693.087Z"  />
      <path id="path51" d="M704.188 681.62H700.819V663.537H703.997C705.735 663.537 707.214 663.779 708.419 664.258C709.628 664.737 710.608 665.392 711.352 666.224C712.091 667.05 712.635 668.038 712.973 669.172C713.311 670.311 713.482 671.556 713.482 672.906C713.482 676.137 712.674 678.399 711.063 679.685C709.452 680.975 707.155 681.62 704.188 681.62ZM727.996 701.869C727.144 701.647 726.238 701.32 725.264 700.881C724.284 700.443 723.393 699.657 722.585 698.523L711.954 683.323C713.355 682.799 714.574 682.114 715.617 681.262C716.655 680.41 717.507 679.478 718.163 678.475C718.82 677.472 719.309 676.444 719.623 675.396C719.946 674.348 720.103 673.34 720.103 672.382C720.103 668.844 718.937 666.037 716.601 663.966C714.27 661.889 710.813 660.851 706.225 660.851H697.631C696.402 660.851 695.109 660.821 693.748 660.75C692.392 660.69 691.074 660.614 689.801 660.524C689.718 660.957 689.674 661.31 689.674 661.572C689.674 662.272 689.884 662.64 690.31 662.686C692.093 662.902 693.293 663.225 693.905 663.638C694.522 664.051 694.83 664.676 694.83 665.503V698.85C694.83 699.727 694.502 700.347 693.846 700.72C693.185 701.088 692.049 701.406 690.438 701.673C689.972 701.753 689.737 702.101 689.737 702.721C689.737 702.978 689.781 703.331 689.865 703.769C691.138 703.678 692.494 703.598 693.939 703.537C695.383 703.472 696.657 703.437 697.763 703.437C699.33 703.437 700.932 703.472 702.567 703.537C704.198 703.598 705.588 703.678 706.739 703.769C706.818 703.331 706.862 702.953 706.862 702.65C706.862 701.995 706.607 701.627 706.103 701.537C704.315 701.32 702.988 701.038 702.121 700.685C701.25 700.337 700.819 699.682 700.819 698.724V684.306H705.525L715.715 699.44C716.518 700.665 717.375 701.673 718.291 702.454C719.202 703.24 720.103 703.633 720.999 703.633C722.184 703.633 723.477 703.668 724.882 703.734C726.282 703.794 727.467 703.875 728.442 703.961C728.53 703.527 728.569 703.134 728.569 702.781C728.569 702.257 728.378 701.95 727.996 701.869Z"  />
    </g>
    <g id="lawless_2">
      <path id="path167" d="M1857.15 437.765L1830.41 429.353C1811.04 423.255 1802.65 415.519 1802.58 399.639C1802.51 381.638 1816.73 371.669 1836.92 371.77C1855.85 371.866 1872.88 380.766 1888.75 394.252L1910.36 346.33C1890.17 328.792 1862.02 315.95 1832.8 316.021C1789.71 316.117 1756.5 350.87 1756.57 397.795C1756.64 440.476 1774.22 469.202 1817.98 483.132L1842.27 490.853C1865.45 498.226 1872.87 504.455 1872.15 521.499C1871.39 539.294 1858.36 550.054 1837.51 550.119C1815.23 550.19 1791.42 540.988 1771.84 524.553L1748.75 572.601C1771.31 592.937 1804.42 605.994 1835.61 605.934C1884.16 605.848 1916.69 570.293 1916.62 521.504C1916.56 476.731 1899.16 450.984 1857.15 437.765Z"  />
      <path id="path171" d="M2025.56 550.121C2003.28 550.186 1979.46 540.984 1959.89 524.554L1936.79 572.598C1959.36 592.938 1992.47 605.991 2023.65 605.935C2072.21 605.845 2104.74 570.295 2104.67 521.505C2104.6 476.733 2087.21 450.985 2045.2 437.766L2018.46 429.355C1999.09 423.257 1990.7 415.521 1990.63 399.641C1990.56 381.639 2004.78 371.671 2024.97 371.771C2043.9 371.867 2060.93 380.767 2076.8 394.254L2098.41 346.331C2078.22 328.793 2050.07 315.952 2020.85 316.023C1977.76 316.118 1944.54 350.872 1944.61 397.796C1944.68 440.472 1962.26 469.204 2006.03 483.133L2030.32 490.854C2053.49 498.227 2060.92 504.451 2060.19 521.5C2059.44 539.296 2046.41 550.055 2025.56 550.121Z"  />
      <path id="path163" d="M1610.53 480.146H1689V425.682L1610.53 425.405V376.051H1722.28V319.823H1567.76V601.96H1722.53V545.611H1610.53V480.146Z"  />
      <path id="path159" d="M1538.59 545.646H1439.47L1439.71 319.823H1396.7V601.96H1538.59V545.646Z"  />
      <path id="path175" d="M1252.11 488.116L1187.98 319.821H1137.7L1167 391.808L1130.06 488.116L1065.93 319.821H1015.66L1130.58 602.18L1191.42 451.811L1252.62 602.18L1365.99 319.821H1316.66L1252.11 488.116Z"  />
      <path id="path155" d="M926.746 494.93L954.344 418.629L982.109 494.93H926.746ZM841.077 601.897H888.052L907.761 547.403H1001.21L1021.04 601.897H1067.12L954.839 300.479L841.077 601.897Z"  />
      <path id="path151" d="M733.569 319.822H690.551V601.959H832.446V545.646H733.32L733.569 319.822Z"  />
    </g>
    <g id="divider">
      <path id="path47" d="M646.266 -4.51463e-05V999.49" stroke-width="4" stroke-miterlimit="10" />
    </g>
  </g>
  <g id="logo">
    <path id="path43" d="M482.679 614.965L123.619 758.722L123.664 729.293C176.65 706.131 447.785 588.362 478.727 589.801C509.992 591.258 578.071 621.424 578.071 621.424L601.947 618.511L481.046 560.14L288.228 637.633L288.203 179.683L177.299 246.545L177.165 396.581L203.048 401.996V671.862L123.696 703.757L124.134 385.357L49.9671 426.927L50.1705 816.901L116.686 786.996C146.579 773.973 447.76 643.106 480.366 644.62C511.632 646.077 579.711 676.249 579.711 676.249L603.58 673.336L482.679 614.965Z"  />
  </g>
</g>
</svg>
