<?xml version="1.0" encoding="UTF-8" standalone="no"?>
<!DOCTYPE svg PUBLIC "-//W3C//DTD SVG 1.1//EN" "http://www.w3.org/Graphics/SVG/1.1/DTD/svg11.dtd">
<svg width="100%" height="100%" viewBox="0 0 1084 200" version="1.1" xmlns="http://www.w3.org/2000/svg" xmlns:xlink="http://www.w3.org/1999/xlink" xml:space="preserve" xmlns:serif="http://www.serif.com/" style="fill-rule:evenodd;clip-rule:evenodd;stroke-linejoin:round;stroke-miterlimit:2;">
    <g transform="matrix(1,0,0,1,-2624.98,-100.231)">
        <g id="sized-for-svg" serif:id="sized for svg" transform="matrix(0.933779,0,0,0.496708,1380.85,100.231)">
            <rect x="1332.36" y="0" width="1160.41" height="401.62" style="fill:none;"/>
            <g transform="matrix(1.07092,0,0,2.01325,-135.771,-276.793)">
                <g transform="matrix(5.7847,0,0,5.7847,145.609,-967.116)">
                    <path d="M292.101,206.723L292.101,208.165C292.104,209.249 292.388,209.978 292.952,210.352C293.516,210.727 294.348,210.901 295.446,210.875L298.358,210.875C299.23,210.874 299.874,210.774 300.293,210.575C300.711,210.376 300.982,210.086 301.105,209.705C301.229,209.323 301.284,208.858 301.271,208.309L301.271,206.579C301.284,206.029 301.229,205.564 301.105,205.183C300.982,204.801 300.711,204.511 300.293,204.313C299.874,204.114 299.23,204.013 298.358,204.013L295.446,204.013C294.348,203.987 293.516,204.161 292.952,204.535C292.388,204.909 292.104,205.638 292.101,206.723ZM286.564,222.443L286.565,200.091L291.929,200.091L291.929,202.282L291.986,202.282C292.303,201.614 292.851,201.048 293.63,200.585C294.408,200.121 295.591,199.88 297.176,199.86L298.762,199.86C301.065,199.868 302.783,200.131 303.917,200.649C305.051,201.168 305.795,201.894 306.15,202.829C306.505,203.764 306.667,204.86 306.634,206.117L306.634,208.77C306.667,210.028 306.505,211.124 306.15,212.059C305.795,212.993 305.051,213.72 303.917,214.238C302.783,214.757 301.065,215.019 298.762,215.027L297.638,215.027C296.603,215.036 295.756,214.97 295.096,214.829C294.436,214.687 293.881,214.416 293.432,214.015C292.983,213.614 292.559,213.029 292.159,212.259L292.101,212.259L292.1,222.443L286.564,222.443" style="fill:rgb(206,112,24);"/>
                </g>
                <g transform="matrix(5.7847,0,0,5.7847,145.609,-1009.93)">
                    <path d="M220.783,215.452L220.783,214.04C220.792,212.204 221.081,210.794 221.65,209.81C222.219,208.825 223.012,208.15 224.03,207.783C225.047,207.417 226.233,207.244 227.588,207.263L233.816,207.263C235.883,207.256 237.495,207.646 238.653,208.435C239.811,209.224 240.4,210.458 240.42,212.137L240.42,213.463L235.056,213.463C235.074,212.722 234.844,212.193 234.364,211.877C233.885,211.561 233.048,211.407 231.856,211.416L229.722,211.416C228.571,211.409 227.715,211.581 227.155,211.935C226.596,212.288 226.317,212.865 226.319,213.665L226.319,215.626C226.334,216.562 226.608,217.213 227.141,217.579C227.674,217.946 228.381,218.121 229.261,218.105L232.086,218.105C232.891,218.119 233.581,218.005 234.155,217.763C234.73,217.521 235.03,217.068 235.056,216.404L235.056,216.058L240.42,216.058L240.42,217.356C240.398,218.662 240.076,219.686 239.45,220.427C238.824,221.169 238.023,221.691 237.045,221.993C236.067,222.295 235.039,222.441 233.961,222.431L228.309,222.431C227.063,222.461 225.87,222.324 224.73,222.018C223.59,221.713 222.653,221.059 221.92,220.056C221.187,219.052 220.808,217.518 220.783,215.452" style="fill:rgb(206,112,24);fill-rule:nonzero;"/>
                </g>
                <g transform="matrix(5.7847,0,0,5.7847,145.609,-1010)">
                    <path d="M242.422,216.617L242.422,213.1C242.444,211.503 242.761,210.282 243.371,209.436C243.981,208.592 244.748,208.016 245.672,207.709C246.597,207.402 247.541,207.257 248.506,207.275L256.781,207.275C257.746,207.257 258.691,207.402 259.614,207.709C260.539,208.016 261.306,208.592 261.916,209.436C262.526,210.282 262.843,211.503 262.866,213.1L262.866,216.617C262.843,218.215 262.526,219.436 261.916,220.281C261.306,221.126 260.539,221.702 259.614,222.009C258.691,222.316 257.746,222.46 256.781,222.442L248.506,222.442C247.541,222.46 246.597,222.316 245.672,222.009C244.748,221.702 243.981,221.126 243.371,220.281C242.761,219.436 242.444,218.215 242.422,216.617ZM247.958,214.167L247.958,215.551C247.957,216.586 248.269,217.306 248.895,217.71C249.521,218.114 250.468,218.307 251.735,218.29L253.062,218.29C254.24,218.296 255.139,218.232 255.757,218.098C256.376,217.963 256.796,217.72 257.017,217.367C257.239,217.015 257.343,216.515 257.329,215.868L257.329,213.85C257.343,213.202 257.239,212.702 257.017,212.35C256.796,211.998 256.376,211.754 255.757,211.62C255.139,211.485 254.24,211.421 253.062,211.427L251.735,211.427C250.468,211.41 249.521,211.603 248.895,212.008C248.269,212.412 247.957,213.131 247.958,214.167" style="fill:rgb(206,112,24);"/>
                </g>
                <g transform="matrix(5.7847,0,0,5.7847,145.609,-1011.58)">
                    <path d="M264.869,222.482L264.869,207.776L270.405,207.776L270.405,210.14L270.463,210.14C270.951,209.137 271.683,208.448 272.658,208.075C273.633,207.702 274.862,207.525 276.345,207.545C277.526,207.508 278.745,207.598 280.001,207.818C281.256,208.036 282.321,208.608 283.195,209.532C284.069,210.455 284.525,211.956 284.563,214.033L284.563,222.482L279.026,222.482L279.026,214.033C279.046,212.591 277.854,211.87 275.451,211.87L274.182,211.87C272.99,211.872 272.065,212.143 271.407,212.682C270.749,213.22 270.415,214.017 270.405,215.071L270.405,222.482L264.869,222.482" style="fill:rgb(206,112,24);fill-rule:nonzero;"/>
                </g>
                <g transform="matrix(5.7847,0,0,5.7847,145.609,-1011.46)">
                    <path d="M308.636,222.462L308.636,207.757L313.826,207.757L313.826,210.554L313.883,210.554C314.229,209.406 314.894,208.609 315.877,208.164C316.86,207.719 317.993,207.506 319.276,207.526C321.276,207.513 322.718,207.971 323.601,208.899C324.484,209.827 324.917,211.302 324.899,213.322C324.894,213.682 324.875,214.115 324.841,214.62L320.054,214.62C320.082,213.684 319.918,212.989 319.561,212.532C319.203,212.077 318.484,211.85 317.402,211.851C316.434,211.845 315.658,212.038 315.073,212.432C314.488,212.825 314.188,213.458 314.172,214.331L314.172,222.462L308.636,222.462" style="fill:rgb(206,112,24);fill-rule:nonzero;"/>
                </g>
                <g transform="matrix(5.7847,0,0,5.7847,145.609,-1010)">
                    <path d="M326.896,216.618L326.896,213.1C326.919,211.503 327.235,210.282 327.845,209.437C328.455,208.592 329.223,208.016 330.146,207.709C331.071,207.402 332.015,207.257 332.98,207.275L341.256,207.275C342.22,207.257 343.165,207.402 344.089,207.709C345.013,208.016 345.78,208.592 346.39,209.437C347.001,210.282 347.317,211.503 347.34,213.1L347.34,216.618C347.317,218.215 347.001,219.436 346.39,220.281C345.78,221.126 345.013,221.702 344.089,222.009C343.165,222.316 342.22,222.46 341.256,222.443L332.98,222.443C332.015,222.46 331.071,222.316 330.146,222.009C329.223,221.702 328.455,221.126 327.845,220.281C327.235,219.436 326.919,218.215 326.896,216.618ZM332.432,214.167L332.432,215.551C332.431,216.586 332.743,217.306 333.369,217.71C333.995,218.114 334.942,218.308 336.209,218.29L337.536,218.29C338.714,218.297 339.613,218.232 340.231,218.098C340.85,217.964 341.27,217.72 341.492,217.367C341.713,217.015 341.817,216.515 341.803,215.868L341.803,213.85C341.817,213.202 341.713,212.703 341.492,212.35C341.27,211.998 340.85,211.754 340.231,211.62C339.613,211.485 338.714,211.421 337.536,211.428L336.209,211.428C334.942,211.41 333.995,211.604 333.369,212.008C332.743,212.412 332.431,213.132 332.432,214.167" style="fill:rgb(206,112,24);"/>
                </g>
                <g transform="matrix(5.7847,0,0,5.7847,145.609,-1009.93)">
                    <path d="M349.348,215.452L349.348,214.04C349.358,212.204 349.647,210.794 350.216,209.81C350.784,208.825 351.577,208.15 352.595,207.783C353.612,207.417 354.798,207.244 356.153,207.263L362.382,207.263C364.448,207.256 366.061,207.646 367.219,208.435C368.377,209.224 368.966,210.458 368.985,212.137L368.985,213.463L363.621,213.463C363.639,212.722 363.409,212.193 362.929,211.877C362.45,211.561 361.614,211.407 360.421,211.416L358.287,211.416C357.136,211.409 356.281,211.581 355.721,211.935C355.161,212.288 354.882,212.865 354.885,213.665L354.885,215.626C354.899,216.562 355.173,217.213 355.707,217.579C356.24,217.946 356.946,218.121 357.826,218.105L360.651,218.105C361.457,218.119 362.146,218.005 362.72,217.763C363.295,217.521 363.595,217.068 363.621,216.404L363.621,216.058L368.985,216.058L368.985,217.356C368.964,218.662 368.641,219.686 368.015,220.427C367.389,221.169 366.588,221.691 365.61,221.993C364.632,222.295 363.604,222.441 362.526,222.431L356.874,222.431C355.628,222.461 354.435,222.324 353.295,222.018C352.155,221.713 351.219,221.059 350.486,220.056C349.753,219.052 349.373,217.518 349.348,215.452" style="fill:rgb(206,112,24);fill-rule:nonzero;"/>
                </g>
                <g transform="matrix(5.7847,0,0,5.7847,145.609,-1010)">
                    <path d="M370.985,216.618L370.985,213.1C371.008,211.503 371.324,210.282 371.934,209.437C372.544,208.592 373.312,208.016 374.235,207.709C375.16,207.402 376.104,207.257 377.069,207.275L385.345,207.275C386.309,207.257 387.254,207.402 388.178,207.709C389.102,208.016 389.869,208.592 390.479,209.437C391.089,210.282 391.406,211.503 391.429,213.1L391.429,216.618C391.406,218.215 391.089,219.436 390.479,220.281C389.869,221.126 389.102,221.702 388.178,222.009C387.254,222.316 386.309,222.46 385.345,222.443L377.069,222.443C376.104,222.46 375.16,222.316 374.235,222.009C373.312,221.702 372.544,221.126 371.934,220.281C371.324,219.436 371.008,218.215 370.985,216.618ZM376.521,214.167L376.521,215.551C376.52,216.586 376.832,217.306 377.458,217.71C378.084,218.114 379.031,218.308 380.298,218.29L381.625,218.29C382.803,218.297 383.702,218.232 384.32,218.098C384.939,217.964 385.359,217.72 385.58,217.367C385.802,217.015 385.906,216.515 385.892,215.868L385.892,213.85C385.906,213.202 385.802,212.703 385.58,212.35C385.359,211.998 384.939,211.754 384.32,211.62C383.702,211.485 382.803,211.421 381.625,211.428L380.298,211.428C379.031,211.41 378.084,211.604 377.458,212.008C376.832,212.412 376.52,213.132 376.521,214.167" style="fill:rgb(206,112,24);"/>
                </g>
                <g transform="matrix(5.7847,0,0,5.7847,145.609,-1068.95)">
                    <path d="M395.129,222.444C394.663,222.439 394.243,222.326 393.867,222.104C393.492,221.882 393.194,221.584 392.972,221.209C392.751,220.834 392.637,220.413 392.632,219.947C392.637,219.485 392.751,219.068 392.972,218.694C393.194,218.321 393.492,218.024 393.867,217.803C394.243,217.581 394.663,217.468 395.129,217.463C395.593,217.468 396.011,217.581 396.385,217.803C396.758,218.024 397.055,218.321 397.275,218.694C397.495,219.068 397.608,219.485 397.613,219.947C397.608,220.413 397.495,220.834 397.275,221.209C397.055,221.584 396.758,221.882 396.385,222.104C396.011,222.326 395.593,222.439 395.129,222.444ZM395.129,222.144C395.536,222.14 395.903,222.04 396.232,221.846C396.56,221.651 396.821,221.389 397.015,221.059C397.209,220.729 397.309,220.358 397.313,219.947C397.309,219.54 397.209,219.173 397.015,218.845C396.821,218.516 396.56,218.255 396.232,218.061C395.903,217.867 395.536,217.767 395.129,217.763C394.72,217.767 394.351,217.867 394.022,218.061C393.693,218.255 393.431,218.516 393.237,218.845C393.042,219.173 392.943,219.54 392.938,219.947C392.943,220.358 393.042,220.729 393.237,221.059C393.431,221.389 393.693,221.651 394.022,221.846C394.351,222.04 394.72,222.14 395.129,222.144ZM395.527,220.058L396.368,221.342L395.964,221.342L395.168,220.058L394.542,220.058L394.542,221.342L394.203,221.342L394.203,218.558L395.416,218.558C395.534,218.556 395.65,218.564 395.765,218.58C395.88,218.597 395.989,218.635 396.094,218.695C396.198,218.757 396.277,218.842 396.329,218.951C396.381,219.06 396.407,219.175 396.407,219.295C396.401,219.566 396.317,219.76 396.153,219.877C395.989,219.994 395.78,220.055 395.527,220.058ZM394.542,219.791L395.064,219.791C395.199,219.795 395.344,219.793 395.497,219.786C395.649,219.779 395.781,219.741 395.89,219.671C395.999,219.601 396.056,219.473 396.062,219.289C396.053,219.08 395.976,218.946 395.829,218.886C395.683,218.826 395.519,218.799 395.338,218.806L394.542,218.806L394.542,219.791" style="fill:rgb(206,112,24);"/>
                </g>
            </g>
        </g>
    </g>
</svg>
